<svg width="273" height="253" viewBox="0 0 273 253" fill="none" xmlns="http://www.w3.org/2000/svg">
<path d="M139.085 80.0796C119.352 51.5056 91.1908 -10.2204 45.9358 29.0636C1.01683 68.1026 34.7008 137.277 63.2888 160.664C92.1848 184.247 185.25 205.632 198.214 146.027C207.16 105.028 160.89 111.643 139.085 80.0796Z" fill="#FC7A1E"/>
<path opacity="0.9" d="M139.085 80.0796C119.352 51.5056 91.1908 -10.2204 45.9358 29.0636C1.01683 68.1026 34.7008 137.277 63.2888 160.664C92.1848 184.247 185.25 205.632 198.214 146.027C207.16 105.028 160.89 111.643 139.085 80.0796Z" fill="white"/>
<path d="M136.46 252.924C211.417 252.924 272.183 249.376 272.183 245C272.183 240.623 211.417 237.076 136.46 237.076C61.502 237.076 0.736755 240.623 0.736755 245C0.736755 249.376 61.502 252.924 136.46 252.924Z" fill="#FFF2E9"/>
<path d="M199.957 195.986C212.204 195.986 222.133 186.057 222.133 173.81C222.133 161.562 212.204 151.634 199.957 151.634C187.709 151.634 177.781 161.562 177.781 173.81C177.781 186.057 187.709 195.986 199.957 195.986Z" fill="white"/>
<path d="M199.957 196.259C195.516 196.26 191.175 194.945 187.483 192.479C183.79 190.013 180.912 186.507 179.212 182.406C177.511 178.304 177.066 173.79 177.931 169.435C178.797 165.079 180.934 161.079 184.073 157.939C187.213 154.798 191.213 152.659 195.568 151.793C199.922 150.926 204.437 151.37 208.539 153.069C212.641 154.768 216.148 157.645 218.615 161.337C221.082 165.029 222.399 169.37 222.399 173.81C222.393 179.761 220.027 185.466 215.82 189.675C211.613 193.884 205.908 196.251 199.957 196.259ZM199.957 151.914C195.624 151.914 191.389 153.199 187.787 155.606C184.185 158.013 181.378 161.434 179.72 165.437C178.063 169.439 177.629 173.844 178.475 178.092C179.321 182.341 181.408 186.244 184.471 189.307C187.535 192.37 191.439 194.456 195.688 195.3C199.937 196.144 204.341 195.709 208.344 194.051C212.346 192.392 215.766 189.583 218.172 185.98C220.578 182.378 221.861 178.142 221.86 173.81C221.854 168.003 219.545 162.436 215.438 158.331C211.331 154.225 205.763 151.918 199.957 151.914Z" fill="#3772FF"/>
<path d="M203.527 161.237H196.387V186.381H203.527V161.237Z" fill="#3772FF"/>
<path d="M212.529 177.387V170.247H187.385V177.387H212.529Z" fill="#3772FF"/>
<path d="M49.7367 6.181L49.2607 5.67C52.5011 2.60682 56.6128 0.625573 61.0277 0L61.1257 0.7C56.8531 1.30257 52.8733 3.21787 49.7367 6.181Z" fill="#3772FF"/>
<path d="M44.5568 13.832L43.9058 13.58C44.6124 11.7968 45.5541 10.1159 46.7058 8.58203L47.2658 9.00203C46.1552 10.4865 45.2444 12.1103 44.5568 13.832Z" fill="#3772FF"/>
<path d="M64.0868 40.6489C74.6951 40.6489 83.2948 32.0492 83.2948 21.4409C83.2948 10.8326 74.6951 2.23291 64.0868 2.23291C53.4785 2.23291 44.8788 10.8326 44.8788 21.4409C44.8788 32.0492 53.4785 40.6489 64.0868 40.6489Z" fill="#3772FF"/>
<path d="M75.5597 12.7887C74.82 12.0207 73.9345 11.4079 72.9551 10.9862C71.9757 10.5644 70.9221 10.3421 69.8558 10.3324C68.7895 10.3226 67.732 10.5255 66.745 10.9292C65.758 11.333 64.8615 11.9294 64.1077 12.6837C63.3546 11.9296 62.4586 11.3333 61.4723 10.9297C60.4859 10.526 59.4289 10.3232 58.3632 10.3329C57.2975 10.3427 56.2444 10.5649 55.2656 10.9866C54.2868 11.4083 53.4019 12.0209 52.6627 12.7887C51.2142 14.3556 50.4337 16.4257 50.4873 18.559C50.5409 20.6922 51.4243 22.7205 52.9497 24.2127L62.0497 33.3127C62.3228 33.5857 62.6469 33.8023 63.0036 33.9501C63.3603 34.0979 63.7426 34.1739 64.1287 34.1739C64.5149 34.1739 64.8972 34.0979 65.2539 33.9501C65.6106 33.8023 65.9347 33.5857 66.2077 33.3127L75.3077 24.2127C76.8284 22.7159 77.7054 20.6851 77.7524 18.5518C77.7995 16.4186 77.0129 14.3511 75.5597 12.7887Z" fill="white"/>
<path d="M64.0867 29.8345C63.9457 29.8296 63.8093 29.7823 63.6956 29.6986C63.582 29.6149 63.4962 29.4988 63.4497 29.3655L59.3968 17.5145L57.7028 22.4705C57.6546 22.6082 57.5646 22.7274 57.4454 22.8115C57.3262 22.8956 57.1836 22.9403 57.0377 22.9395H50.2547C50.0691 22.9395 49.891 22.8657 49.7598 22.7344C49.6285 22.6032 49.5547 22.4251 49.5547 22.2395C49.5547 22.0538 49.6285 21.8758 49.7598 21.7445C49.891 21.6132 50.0691 21.5395 50.2547 21.5395H56.5548L58.7528 15.1205C58.8004 14.9829 58.8897 14.8636 59.0082 14.7792C59.1268 14.6948 59.2687 14.6494 59.4142 14.6494C59.5598 14.6494 59.7017 14.6948 59.8203 14.7792C59.9389 14.8636 60.0281 14.9829 60.0758 15.1205L64.1988 27.1815L68.2028 17.7525C68.2534 17.6323 68.3365 17.5286 68.4429 17.4532C68.5493 17.3777 68.6746 17.3335 68.8048 17.3255C68.9358 17.3179 69.0664 17.3474 69.1815 17.4105C69.2966 17.4737 69.3916 17.5679 69.4557 17.6825L71.5697 21.5325H77.9467C78.1324 21.5325 78.3104 21.6062 78.4417 21.7375C78.573 21.8688 78.6467 22.0468 78.6467 22.2325C78.6467 22.4181 78.573 22.5962 78.4417 22.7274C78.3104 22.8587 78.1324 22.9325 77.9467 22.9325H71.1637C71.0385 22.9335 70.9153 22.9009 70.807 22.8381C70.6986 22.7753 70.6091 22.6846 70.5477 22.5755L68.8887 19.6075L64.7307 29.4075C64.6772 29.534 64.5875 29.6419 64.473 29.7179C64.3585 29.7938 64.2242 29.8344 64.0867 29.8345Z" fill="#3772FF"/>
<path d="M170.662 220.472H97.6028C96.4123 220.485 95.2322 220.251 94.1373 219.783C93.0424 219.316 92.0568 218.625 91.243 217.756C90.4293 216.887 89.8053 215.859 89.4107 214.735C89.016 213.612 88.8594 212.419 88.9508 211.232L100.76 36.2321C100.966 33.7329 102.094 31.3995 103.925 29.6855C105.755 27.9714 108.157 26.999 110.665 26.9571H183.738C184.931 26.9435 186.115 27.179 187.212 27.6486C188.31 28.1183 189.297 28.8117 190.111 29.6846C190.926 30.5575 191.549 31.5906 191.941 32.718C192.333 33.8454 192.486 35.0423 192.39 36.2321L180.56 211.232C180.347 213.724 179.217 216.049 177.388 217.756C175.56 219.463 173.163 220.431 170.662 220.472Z" fill="#263238"/>
<path d="M186.86 98.224H185.019C184.685 98.228 184.355 98.1624 184.048 98.0314C183.742 97.9003 183.466 97.7066 183.239 97.4628C183.011 97.219 182.838 96.9304 182.728 96.6154C182.619 96.3005 182.576 95.9662 182.604 95.634L184.865 62.181C184.917 61.4814 185.231 60.827 185.743 60.3474C186.255 59.8677 186.928 59.5978 187.63 59.591H189.471C189.804 59.587 190.135 59.6526 190.441 59.7837C190.748 59.9147 191.023 60.1084 191.251 60.3522C191.478 60.596 191.652 60.8846 191.761 61.1995C191.871 61.5145 191.913 61.8488 191.886 62.181L189.625 95.634C189.572 96.3336 189.259 96.988 188.747 97.4676C188.235 97.9473 187.561 98.2172 186.86 98.224Z" fill="#263238"/>
<path d="M99.6958 75.908H97.8618C97.5904 75.9116 97.3213 75.8588 97.0714 75.753C96.8215 75.6471 96.5963 75.4905 96.4101 75.2931C96.2238 75.0957 96.0806 74.8618 95.9895 74.6061C95.8984 74.3505 95.8614 74.0787 95.8808 73.808L96.6998 61.726C96.7515 61.1588 97.0109 60.6307 97.4282 60.2431C97.8455 59.8555 98.3913 59.6357 98.9608 59.626H100.802C101.072 59.6244 101.34 59.6787 101.589 59.7853C101.837 59.8919 102.061 60.0487 102.247 60.2458C102.432 60.4428 102.574 60.676 102.665 60.9307C102.757 61.1854 102.794 61.4561 102.776 61.726L101.957 73.808C101.907 74.3758 101.648 74.9048 101.23 75.2927C100.812 75.6806 100.266 75.8998 99.6958 75.908Z" fill="#3772FF"/>
<path d="M98.2397 97.4822H96.3988C96.128 97.4849 95.8596 97.4313 95.6105 97.3251C95.3614 97.2188 95.1371 97.062 94.9516 96.8647C94.7662 96.6674 94.6236 96.4338 94.5329 96.1787C94.4422 95.9235 94.4054 95.6523 94.4248 95.3822L95.2438 83.3002C95.2954 82.733 95.5549 82.2049 95.9722 81.8173C96.3895 81.4297 96.9353 81.21 97.5048 81.2002H99.3598C99.6302 81.1986 99.8981 81.2529 100.147 81.3595C100.395 81.4661 100.619 81.6229 100.804 81.82C100.99 82.0171 101.132 82.2502 101.223 82.5049C101.314 82.7596 101.352 83.0304 101.334 83.3002L100.515 95.3822C100.464 95.9524 100.203 96.4833 99.7828 96.8716C99.3622 97.2598 98.8121 97.4775 98.2397 97.4822Z" fill="#3772FF"/>
<path d="M169.115 220.472H96.0558C94.8653 220.485 93.6852 220.251 92.5903 219.783C91.4954 219.315 90.5098 218.625 89.696 217.756C88.8823 216.887 88.2583 215.858 87.8637 214.735C87.4691 213.612 87.3124 212.419 87.4038 211.232L99.2198 36.2319C99.4333 33.7318 100.569 31.4004 102.406 29.6913C104.244 27.9822 106.651 27.0175 109.16 26.9849H182.191C183.382 26.9716 184.563 27.2064 185.658 27.6743C186.753 28.1423 187.739 28.8332 188.553 29.7029C189.367 30.5727 189.991 31.6024 190.385 32.7265C190.779 33.8505 190.935 35.0443 190.843 36.2319L179.02 211.232C178.807 213.725 177.676 216.051 175.846 217.758C174.016 219.465 171.617 220.432 169.115 220.472Z" fill="#3772FF"/>
<path opacity="0.3" d="M88.1738 209.272L99.7098 38.5H190.052L178.516 209.272H88.1738Z" fill="white"/>
<path opacity="0.1" d="M123.839 209.272L156.081 38.5H176.318L144.076 209.272H123.839Z" fill="white"/>
<path opacity="0.1" d="M108.551 209.272L140.793 38.5H151.048L118.806 209.272H108.551Z" fill="white"/>
<path d="M136.558 31.276H154.177C154.324 31.2735 154.47 31.3019 154.605 31.3594C154.741 31.4169 154.862 31.5022 154.963 31.6098C155.063 31.7174 155.14 31.8448 155.187 31.9839C155.235 32.1229 155.254 32.2705 155.241 32.417C155.216 32.7254 155.078 33.0138 154.853 33.226C154.628 33.4382 154.332 33.559 154.023 33.565H136.404C136.256 33.5666 136.11 33.5372 135.975 33.479C135.839 33.4207 135.718 33.3347 135.618 33.2266C135.517 33.1185 135.441 32.9906 135.393 32.8512C135.345 32.7118 135.327 32.5639 135.34 32.417C135.364 32.1093 135.503 31.8217 135.728 31.6107C135.953 31.3996 136.249 31.2803 136.558 31.276Z" fill="white"/>
<path d="M132.89 237.307L126.716 237.895L124.49 223.65L130.664 223.055L132.89 237.307Z" fill="#FFB573"/>
<path d="M126.009 234.878L132.477 232.869C132.588 232.83 132.71 232.836 132.818 232.886C132.925 232.936 133.008 233.025 133.051 233.135L135.151 238.266C135.203 238.404 135.226 238.55 135.219 238.697C135.211 238.844 135.174 238.988 135.108 239.119C135.042 239.251 134.95 239.368 134.837 239.462C134.723 239.556 134.592 239.625 134.451 239.666C132.113 240.366 129.887 240.527 127.066 241.766C123.769 243.166 122.39 245.042 118.841 245.042C116.3 245.042 115.726 242.711 116.804 242.389C121.704 240.905 121.06 239.687 124.616 235.858C124.986 235.414 125.466 235.076 126.009 234.878Z" fill="#263238"/>
<path opacity="0.2" d="M124.49 223.65L125.638 231L131.819 230.405L130.671 223.055L124.49 223.65Z" fill="black"/>
<path d="M128.956 43.6519C120.857 42.6999 112.8 43.3369 104.715 44.9049C103.367 45.1665 102.138 45.8502 101.206 46.8571C100.273 47.8639 99.6855 49.1416 99.5278 50.5049C98.6528 58.2469 97.6518 75.5999 101.558 101.486L134.654 98.6859C134.717 93.9889 131.378 72.5899 134.136 50.3859C134.249 49.6021 134.203 48.8036 134.003 48.0376C133.802 47.2716 133.45 46.5535 132.967 45.9258C132.484 45.2982 131.88 44.7736 131.191 44.383C130.502 43.9925 129.742 43.7439 128.956 43.6519Z" fill="white"/>
<path d="M109.685 50.2881L110.868 52.6541C110.923 52.7735 111.011 52.8749 111.121 52.9467C111.231 53.0185 111.359 53.0578 111.491 53.0601L112.772 53.1301C113 53.14 113.225 53.0708 113.409 52.9341L115.614 51.2891L112.891 49.3081L109.685 50.2881Z" fill="#263238"/>
<path d="M112.814 52.4512C112.347 52.2349 111.818 52.1927 111.323 52.3322C110.28 56.0072 109.139 66.5562 109.02 71.2322C112.184 80.4512 113.22 81.3822 113.22 81.3822L114.823 70.2872C114.823 70.2872 113.024 58.9402 112.814 52.4512Z" fill="#263238"/>
<path d="M121.949 27.6919C121.193 32.2559 120.549 40.5929 123.825 43.5399C121.424 46.0599 118.281 48.9789 112.891 49.3079C107.501 49.6369 108.334 45.9059 109.699 43.9109C114.732 42.5669 114.487 38.8149 113.5 35.3079L121.949 27.6919Z" fill="#FFB573"/>
<path d="M125.197 43.1413C124.815 42.9767 124.419 42.8478 124.014 42.7563C123.915 42.7301 123.81 42.7371 123.715 42.7763C123.62 42.8155 123.541 42.8847 123.489 42.9733C122.971 43.8553 121.389 47.7963 112.891 49.3083C114.291 50.1343 116.146 52.6963 116.944 53.9283C119.492 52.6053 126.121 48.6503 125.491 43.5333C125.478 43.4488 125.444 43.3688 125.393 43.3004C125.342 43.232 125.274 43.1773 125.197 43.1413Z" fill="#F5F5F5"/>
<path d="M109.748 44.1209C109.766 44.0413 109.763 43.9584 109.741 43.8799C109.719 43.8013 109.677 43.7296 109.62 43.6712C109.563 43.6127 109.493 43.5695 109.415 43.5454C109.337 43.5212 109.254 43.5169 109.174 43.5329C108.88 43.59 108.59 43.6672 108.306 43.7639C108.24 43.7896 108.179 43.825 108.124 43.8689C107.473 44.4709 103.924 49.5949 107.249 53.7389C107.949 52.6119 110.364 50.0569 112.891 49.3079C110.497 48.2299 109.321 46.2209 109.748 44.1209Z" fill="#F5F5F5"/>
<path opacity="0.2" d="M118.505 30.8003L113.507 35.3083C113.748 36.1225 113.916 36.9564 114.011 37.8003C115.943 37.4713 118.54 35.2803 118.68 33.2503C118.774 32.4299 118.715 31.599 118.505 30.8003Z" fill="black"/>
<path d="M111.827 13.8952C107.515 15.5822 107.235 19.1242 107.627 22.9952C108.019 26.8662 112.233 24.3042 113.171 21.8822C114.109 19.4602 117.798 11.5572 111.827 13.8952Z" fill="#263238"/>
<path d="M125.582 21.6164C124.385 27.7134 123.986 31.3324 120.5 34.1394C115.243 38.3394 108.124 34.7134 107.494 28.4274C106.927 22.7644 108.978 13.7274 115.257 11.9634C116.626 11.5602 118.077 11.5213 119.466 11.8506C120.855 12.1798 122.134 12.8657 123.177 13.8405C124.219 14.8154 124.99 16.0455 125.412 17.4092C125.833 18.7729 125.892 20.2231 125.582 21.6164Z" fill="#FFB573"/>
<path d="M125.33 26.663C120.199 26.936 121.284 24.024 122.215 22.351C123.146 20.678 121.249 17.913 122.488 16.478C120.276 17.36 117.945 16.632 114.984 14.574C112.688 12.971 109.811 19.376 107.011 16.163C104.365 13.132 106.822 8.56104 113.178 7.82604C119.534 7.09104 120.689 11.585 124.861 11.186C129.033 10.787 127.584 14.224 126.765 14.924C130.265 15.155 132.176 18.501 125.33 26.663Z" fill="#263238"/>
<path d="M125.96 15.3509C126.763 14.9106 127.433 14.2638 127.902 13.4774C128.371 12.6909 128.621 11.7935 128.627 10.8779C130.013 13.3069 129.866 16.0649 125.96 15.3509Z" fill="#263238"/>
<path d="M112.66 28.1256C113.218 28.2222 113.789 28.205 114.34 28.0751C114.891 27.9451 115.41 27.7052 115.866 27.3696C115.88 27.3566 115.891 27.3408 115.898 27.3234C115.906 27.3059 115.909 27.2871 115.909 27.2681C115.909 27.2492 115.906 27.2304 115.898 27.2129C115.891 27.1955 115.88 27.1797 115.866 27.1666C115.838 27.1405 115.802 27.126 115.764 27.126C115.727 27.126 115.69 27.1405 115.663 27.1666C115.152 27.5285 114.565 27.7668 113.946 27.8628C113.328 27.9588 112.696 27.9098 112.1 27.7196C112.062 27.7102 112.022 27.7149 111.987 27.7329C111.952 27.751 111.925 27.7811 111.911 27.8176C111.9 27.8548 111.904 27.8947 111.922 27.9288C111.941 27.9628 111.972 27.9883 112.009 27.9996C112.222 28.061 112.439 28.1032 112.66 28.1256Z" fill="#263238"/>
<path d="M126.821 28.5323C125.862 29.7675 124.457 30.5769 122.908 30.7863C120.871 31.0523 120.192 29.1553 121.046 27.3843C121.823 25.7883 123.846 23.7303 125.722 24.2833C127.598 24.8363 127.997 26.9923 126.821 28.5323Z" fill="#FFB573"/>
<path d="M124.798 161.091C125.043 142.814 127.381 99.2808 127.381 99.2808L101.579 101.458C101.579 101.458 106.71 146.321 109.804 164.969C113.024 184.352 122.901 229.761 122.901 229.761L133.401 228.865C133.401 228.865 129.565 175.224 124.798 161.091Z" fill="#263238"/>
<path d="M122.271 230.048L134.724 228.991L134.234 224.973L121.256 225.841L122.271 230.048Z" fill="#3772FF"/>
<path d="M116.384 21.9797C116.321 22.4767 115.999 22.8547 115.684 22.8197C115.369 22.7847 115.152 22.3507 115.222 21.8467C115.292 21.3427 115.607 20.9717 115.922 21.0067C116.237 21.0417 116.454 21.4827 116.384 21.9797Z" fill="#263238"/>
<path d="M110.672 21.5317C110.609 22.0357 110.287 22.4067 109.972 22.3717C109.657 22.3367 109.44 21.9027 109.51 21.4057C109.58 20.9087 109.895 20.5307 110.21 20.5657C110.525 20.6007 110.742 21.0067 110.672 21.5317Z" fill="#263238"/>
<path d="M112.282 22.1196C111.439 23.415 110.426 24.592 109.272 25.6196C110.014 26.3966 111.547 26.1866 111.547 26.1866L112.282 22.1196Z" fill="#ED893E"/>
<path opacity="0.4" d="M107.06 21.6582C106.955 22.4562 107.76 23.1212 108.873 23.2612C109.986 23.4012 111.015 22.7922 111.113 21.9942" fill="#3772FF"/>
<path opacity="0.4" d="M113.675 22.3999C113.521 23.1909 114.298 23.9049 115.39 24.1149C116.482 24.3249 117.553 23.7649 117.7 22.9809" fill="#3772FF"/>
<path d="M115.824 24.3317C115.698 24.3387 115.572 24.3387 115.446 24.3317C114.908 24.2674 114.402 24.0403 113.997 23.6807C113.82 23.5295 113.682 23.3381 113.594 23.1225C113.506 22.907 113.472 22.6735 113.493 22.4417C113.138 22.287 112.759 22.1924 112.373 22.1617C111.984 22.0648 111.578 22.0648 111.19 22.1617C111.092 23.0157 110.028 23.6037 108.838 23.4567C108.3 23.3979 107.793 23.1728 107.389 22.8127C107.213 22.6608 107.075 22.4693 106.988 22.2539C106.9 22.0385 106.865 21.8054 106.885 21.5737L107.221 21.6157C107.207 21.7947 107.236 21.9745 107.305 22.1401C107.374 22.3057 107.482 22.4523 107.62 22.5677C107.972 22.8781 108.413 23.0713 108.88 23.1207C109.888 23.2537 110.784 22.7847 110.875 22.0847C110.924 21.6927 111.736 21.7207 112.408 21.8047C113.08 21.8887 113.878 22.0777 113.808 22.4627C113.793 22.6418 113.822 22.8217 113.891 22.9874C113.961 23.1531 114.069 23.2997 114.207 23.4147C114.564 23.721 115.003 23.916 115.469 23.9757C115.936 24.0354 116.409 23.9572 116.832 23.7507C116.995 23.6748 117.137 23.5608 117.247 23.4182C117.357 23.2757 117.43 23.1088 117.462 22.9317V22.7637L126.1 23.8767L126.058 24.2127L117.742 23.1417C117.681 23.3366 117.582 23.5171 117.45 23.6723C117.317 23.8276 117.155 23.9543 116.972 24.0447C116.618 24.232 116.224 24.3305 115.824 24.3317Z" fill="#263238"/>
<path d="M118.582 19.7821C118.632 19.7823 118.68 19.7677 118.722 19.7401C118.79 19.7005 118.84 19.6359 118.861 19.56C118.882 19.4841 118.872 19.403 118.834 19.3341C118.617 18.927 118.303 18.5798 117.919 18.3233C117.536 18.0669 117.095 17.9091 116.636 17.8641C116.557 17.8603 116.48 17.8874 116.421 17.9398C116.362 17.9922 116.326 18.0655 116.321 18.1441C116.317 18.221 116.343 18.2963 116.394 18.3539C116.445 18.4115 116.517 18.4467 116.594 18.4521C116.957 18.4948 117.304 18.6255 117.606 18.8328C117.907 19.0402 118.153 19.318 118.323 19.6421C118.349 19.6867 118.387 19.7232 118.433 19.7479C118.479 19.7725 118.53 19.7844 118.582 19.7821Z" fill="#263238"/>
<path d="M108.824 18.9909C108.872 18.9957 108.921 18.9886 108.966 18.9703C109.011 18.952 109.051 18.9231 109.083 18.8859C109.309 18.5895 109.602 18.3503 109.937 18.1874C110.273 18.0245 110.642 17.9425 111.015 17.9479C111.053 17.9518 111.092 17.9479 111.13 17.9366C111.167 17.9253 111.201 17.9068 111.231 17.882C111.261 17.8573 111.286 17.8269 111.304 17.7925C111.322 17.7582 111.333 17.7206 111.337 17.6819C111.342 17.6442 111.339 17.6059 111.329 17.5692C111.319 17.5325 111.302 17.4981 111.278 17.4682C111.255 17.4382 111.226 17.4132 111.192 17.3946C111.159 17.376 111.123 17.3642 111.085 17.3599C110.615 17.3476 110.148 17.4457 109.723 17.6463C109.297 17.8468 108.925 18.1444 108.635 18.5149C108.585 18.5744 108.561 18.6513 108.567 18.7286C108.574 18.806 108.611 18.8777 108.67 18.9279C108.715 18.9608 108.768 18.9823 108.824 18.9909Z" fill="#263238"/>
<path d="M146.295 158.144C140.94 130.62 139.736 109.095 134.654 98.644L109.657 101.444C109.657 101.444 124.546 142.457 131.819 159.964C139.372 178.164 154.282 209.258 154.282 209.258H166.77C166.77 209.258 155.115 170.681 146.295 158.144Z" fill="#263238"/>
<path d="M67.0618 53.949L64.3598 52.241C63.9212 51.9584 63.3982 51.8368 62.8799 51.8968C62.3616 51.9568 61.8802 52.1947 61.5178 52.57L59.6838 54.502C59.4863 54.7105 59.3336 54.9573 59.2353 55.2272C59.1369 55.497 59.095 55.7842 59.112 56.0709C59.1291 56.3576 59.2048 56.6378 59.3344 56.8941C59.4641 57.1504 59.6449 57.3774 59.8658 57.561L61.1748 58.681C62.3134 59.6459 63.6416 60.3612 65.0738 60.781L69.0288 61.95L71.6258 59.15C72.4168 56.231 67.0618 53.949 67.0618 53.949Z" fill="#FFB573"/>
<path d="M107.06 52.64C106.08 55.034 105.121 57.26 104.078 59.535C103.035 61.81 101.978 64.057 100.809 66.29C99.6398 68.523 98.3938 70.742 96.9798 72.968C96.2798 74.074 95.5028 75.18 94.6208 76.293C93.6725 77.5202 92.5928 78.6399 91.4008 79.632C90.6137 80.2753 89.7452 80.8119 88.8178 81.228C88.5238 81.34 88.2508 81.452 87.9288 81.55L87.4388 81.683C87.1922 81.7435 86.942 81.788 86.6897 81.816C85.8364 81.9121 84.9727 81.8504 84.1417 81.634C83.1028 81.3432 82.1156 80.8921 81.2158 80.297C80.5418 79.8764 79.8985 79.4086 79.2908 78.897C77.2706 77.1332 75.4085 75.1962 73.7258 73.108C72.0948 71.148 70.5548 69.181 69.0778 67.172C67.6008 65.163 66.1798 63.189 64.7238 61.082L72.4658 56.084C74.9089 60.0279 77.6123 63.8046 80.5578 67.389C81.9118 69.0492 83.4034 70.5924 85.0168 72.002C85.3293 72.2577 85.6591 72.4916 86.0038 72.702C86.2628 72.877 86.5217 72.947 86.3397 72.884C86.0936 72.8163 85.8359 72.802 85.5838 72.842C85.4819 72.8514 85.3812 72.8701 85.2828 72.898H85.2268C85.1918 72.898 85.1918 72.898 85.1848 72.898C85.3439 72.794 85.496 72.6794 85.6397 72.555C86.2787 71.975 86.8579 71.3325 87.3687 70.637C87.9638 69.839 88.5588 68.943 89.1258 68.012C90.2847 66.0763 91.3408 64.0809 92.2897 62.034C93.2697 59.934 94.2148 57.834 95.0898 55.65C95.9648 53.466 96.7978 51.247 97.5048 49.126L107.06 52.64Z" fill="#3772FF"/>
<g opacity="0.6">
<path d="M107.06 52.64C106.08 55.034 105.121 57.26 104.078 59.535C103.035 61.81 101.978 64.057 100.809 66.29C99.6398 68.523 98.3938 70.742 96.9798 72.968C96.2798 74.074 95.5028 75.18 94.6208 76.293C93.6725 77.5202 92.5928 78.6399 91.4008 79.632C90.6137 80.2753 89.7452 80.8119 88.8178 81.228C88.5238 81.34 88.2508 81.452 87.9288 81.55L87.4388 81.683C87.1922 81.7435 86.942 81.788 86.6897 81.816C85.8364 81.9121 84.9727 81.8504 84.1417 81.634C83.1028 81.3432 82.1156 80.8921 81.2158 80.297C80.5418 79.8764 79.8985 79.4086 79.2908 78.897C77.2706 77.1332 75.4085 75.1962 73.7258 73.108C72.0948 71.148 70.5548 69.181 69.0778 67.172C67.6008 65.163 66.1798 63.189 64.7238 61.082L72.4658 56.084C74.9089 60.0279 77.6123 63.8046 80.5578 67.389C81.9118 69.0492 83.4034 70.5924 85.0168 72.002C85.3293 72.2577 85.6591 72.4916 86.0038 72.702C86.2628 72.877 86.5217 72.947 86.3397 72.884C86.0936 72.8163 85.8359 72.802 85.5838 72.842C85.4819 72.8514 85.3812 72.8701 85.2828 72.898H85.2268C85.1918 72.898 85.1918 72.898 85.1848 72.898C85.3439 72.794 85.496 72.6794 85.6397 72.555C86.2787 71.975 86.8579 71.3325 87.3687 70.637C87.9638 69.839 88.5588 68.943 89.1258 68.012C90.2847 66.0763 91.3408 64.0809 92.2897 62.034C93.2697 59.934 94.2148 57.834 95.0898 55.65C95.9648 53.466 96.7978 51.247 97.5048 49.126L107.06 52.64Z" fill="white"/>
</g>
<path d="M125.386 41.8953C122.761 46.7953 113.416 65.4643 112.282 76.9863C108.145 66.4863 109.048 43.2603 109.048 43.2603C106.099 43.5477 103.207 44.2548 100.459 45.3603C99.5731 45.7242 98.8054 46.3263 98.2407 47.0997C97.6761 47.8731 97.3366 48.7878 97.2598 49.7423C96.4541 61.7601 96.834 73.828 98.3938 85.7713C101.299 108.381 103.994 143.542 103.994 143.542C103.994 143.542 127.129 142.576 144.979 138.81C142.802 121.527 135.354 92.5613 135.284 84.8053C135.2 74.8233 135.431 55.3073 135.746 47.1593C135.799 46.0089 135.438 44.8776 134.729 43.9699C134.021 43.0622 133.011 42.4381 131.882 42.2103C129.741 41.8135 127.555 41.7075 125.386 41.8953Z" fill="#3772FF"/>
<path opacity="0.7" d="M125.386 41.8951C122.761 46.7951 113.416 65.4641 112.282 76.9861C108.145 66.4861 109.048 43.2601 109.048 43.2601C106.099 43.5475 103.207 44.2547 100.459 45.3601C99.5731 45.7241 98.8054 46.3261 98.2407 47.0995C97.6761 47.873 97.3366 48.7876 97.2598 49.7421C96.4541 61.7599 96.834 73.8278 98.3938 85.7711C101.299 108.381 103.994 143.542 103.994 143.542C103.994 143.542 127.129 142.576 144.979 138.81C142.802 121.527 135.354 92.5611 135.284 84.8051C135.2 74.8231 135.431 55.3001 135.746 47.1521C135.812 46.0368 135.482 44.9338 134.815 44.0375C134.148 43.1411 133.186 42.5089 132.099 42.2521C129.889 41.819 127.629 41.6988 125.386 41.8951Z" fill="white"/>
<path d="M119.933 139.79C115.915 117.621 112.73 85.0922 112.471 81.1792H112.828C113.087 85.0922 116.279 117.579 120.29 139.748L119.933 139.79Z" fill="white"/>
<path d="M117.931 100.352H96.5948C96.164 100.333 95.751 100.174 95.4179 99.9004C95.0847 99.6266 94.8492 99.2521 94.7468 98.8332L87.6138 65.6742C87.5616 65.4932 87.553 65.3024 87.589 65.1174C87.6249 64.9325 87.7042 64.7587 87.8204 64.6104C87.9366 64.4621 88.0863 64.3435 88.2573 64.2644C88.4282 64.1852 88.6155 64.1478 88.8038 64.1552H110.133C110.565 64.1732 110.979 64.331 111.314 64.605C111.648 64.8789 111.885 65.2542 111.988 65.6742L119.121 98.8332C119.173 99.0142 119.182 99.205 119.146 99.39C119.11 99.5749 119.03 99.7487 118.914 99.897C118.798 100.045 118.648 100.164 118.477 100.243C118.306 100.322 118.119 100.36 117.931 100.352Z" fill="white"/>
<path d="M117.266 100.632H95.5657C95.1271 100.611 94.7067 100.45 94.3674 100.171C94.0281 99.8921 93.7879 99.5111 93.6827 99.0847L86.4238 65.3657C86.3718 65.1809 86.3642 64.9865 86.4016 64.7982C86.4391 64.61 86.5205 64.4332 86.6393 64.2824C86.758 64.1316 86.9107 64.011 87.0849 63.9304C87.2591 63.8498 87.4499 63.8115 87.6417 63.8187H109.342C109.78 63.8391 110.201 64.0008 110.54 64.2796C110.879 64.5584 111.12 64.9393 111.225 65.3657L118.477 99.0847C118.53 99.269 118.539 99.4633 118.503 99.6517C118.466 99.84 118.385 100.017 118.267 100.168C118.149 100.319 117.996 100.44 117.822 100.521C117.648 100.601 117.457 100.639 117.266 100.632Z" fill="#3772FF"/>
<path d="M119.751 81.6056L114.354 81.4026C113.705 81.3803 113.059 81.4948 112.457 81.7386L109.657 82.8586C109.394 82.9627 109.155 83.1187 108.954 83.3173C108.753 83.5159 108.594 83.753 108.487 84.0144C108.38 84.2758 108.327 84.5562 108.33 84.8387C108.334 85.1213 108.395 85.4001 108.509 85.6586L109.629 88.0806C109.855 88.5504 110.236 88.9279 110.707 89.1498C111.179 89.3716 111.713 89.4242 112.219 89.2986L115.306 88.5286C115.306 88.5286 121.102 88.0666 121.312 85.0286L119.751 81.6056Z" fill="#FFB573"/>
<path d="M134.654 44.8979C135.991 46.9979 137.216 48.9159 138.42 50.9739C139.624 53.0319 140.807 55.0689 141.92 57.1969C143.033 59.3249 144.09 61.523 145.049 63.875C145.547 65.1067 145.972 66.3665 146.323 67.648C146.774 69.2098 146.982 70.8318 146.939 72.4569V72.7299C146.941 72.7766 146.941 72.8233 146.939 72.8699C146.939 73.1219 146.869 73.3739 146.82 73.6259C146.771 73.8779 146.708 74.0739 146.638 74.3259C146.568 74.5779 146.491 74.7109 146.414 74.9069C146.146 75.5126 145.803 76.0818 145.392 76.6009C144.82 77.3156 144.169 77.9636 143.453 78.5329C142.352 79.4002 141.181 80.1752 139.953 80.85C137.792 82.0315 135.567 83.0925 133.289 84.0279C131.084 84.9659 128.886 85.82 126.674 86.625C124.462 87.43 122.285 88.207 119.982 88.977L117.315 80.1569C119.415 79.5829 121.557 78.8759 123.65 78.1619C125.743 77.4479 127.85 76.65 129.838 75.8169C131.789 75.011 133.691 74.0924 135.536 73.0659C136.314 72.6345 137.056 72.1405 137.755 71.5889C137.938 71.4498 138.103 71.2874 138.245 71.106C138.185 71.1738 138.137 71.2521 138.105 71.3369C138.105 71.3999 138.07 71.4419 138.035 71.5189C138.007 71.6012 137.986 71.6854 137.972 71.771C137.942 71.8785 137.924 71.9887 137.916 72.1C137.916 72.142 137.916 72.1489 137.916 72.1349V72.0859C137.867 71.4218 137.738 70.766 137.531 70.1329C137.251 69.2165 136.919 68.3167 136.537 67.4379C135.681 65.5004 134.713 63.6142 133.639 61.7889C132.547 59.9129 131.385 58.0369 130.139 56.1889C128.893 54.3409 127.619 52.4999 126.338 50.8199L134.654 44.8979Z" fill="#3772FF"/>
<g opacity="0.7">
<path d="M134.654 44.8979C135.991 46.9979 137.216 48.9159 138.42 50.9739C139.624 53.0319 140.807 55.0689 141.92 57.1969C143.033 59.3249 144.09 61.523 145.049 63.875C145.547 65.1067 145.972 66.3665 146.323 67.648C146.774 69.2098 146.982 70.8318 146.939 72.4569V72.7299C146.941 72.7766 146.941 72.8233 146.939 72.8699C146.939 73.1219 146.869 73.3739 146.82 73.6259C146.771 73.8779 146.708 74.0739 146.638 74.3259C146.568 74.5779 146.491 74.7109 146.414 74.9069C146.146 75.5126 145.803 76.0818 145.392 76.6009C144.82 77.3156 144.169 77.9636 143.453 78.5329C142.352 79.4002 141.181 80.1752 139.953 80.85C137.792 82.0315 135.567 83.0925 133.289 84.0279C131.084 84.9659 128.886 85.82 126.674 86.625C124.462 87.43 122.285 88.207 119.982 88.977L117.315 80.1569C119.415 79.5829 121.557 78.8759 123.65 78.1619C125.743 77.4479 127.85 76.65 129.838 75.8169C131.789 75.011 133.691 74.0924 135.536 73.0659C136.314 72.6345 137.056 72.1405 137.755 71.5889C137.938 71.4498 138.103 71.2874 138.245 71.106C138.185 71.1738 138.137 71.2521 138.105 71.3369C138.105 71.3999 138.07 71.4419 138.035 71.5189C138.007 71.6012 137.986 71.6854 137.972 71.771C137.942 71.8785 137.924 71.9887 137.916 72.1C137.916 72.142 137.916 72.1489 137.916 72.1349V72.0859C137.867 71.4218 137.738 70.766 137.531 70.1329C137.251 69.2165 136.919 68.3167 136.537 67.4379C135.681 65.5004 134.713 63.6142 133.639 61.7889C132.547 59.9129 131.385 58.0369 130.139 56.1889C128.893 54.3409 127.619 52.4999 126.338 50.8199L134.654 44.8979Z" fill="white"/>
</g>
<path d="M127.57 69.1882C127.523 69.1876 127.477 69.1751 127.437 69.1518C127.397 69.1285 127.363 69.0953 127.339 69.0552C127.318 69.0246 127.304 68.9902 127.297 68.9541C127.29 68.9179 127.291 68.8808 127.299 68.8448C127.307 68.8088 127.322 68.7748 127.343 68.7448C127.364 68.7148 127.391 68.6894 127.423 68.6702L128.515 67.9702C129.534 67.3274 130.334 66.3902 130.809 65.2828C131.284 64.1753 131.412 62.9497 131.175 61.7682L128.977 50.6382C128.816 49.806 128.379 49.0524 127.737 48.4993C127.094 47.9462 126.284 47.6259 125.438 47.5903C124.591 47.5547 123.757 47.8058 123.07 48.303C122.384 48.8002 121.885 49.5144 121.655 50.3302L118.54 61.2432C118.2 62.3968 118.218 63.6265 118.593 64.7693C118.968 65.912 119.682 66.9136 120.64 67.6412L121.676 68.4252C121.734 68.4708 121.772 68.5376 121.781 68.6111C121.79 68.6845 121.77 68.7587 121.725 68.8172C121.703 68.8459 121.675 68.8699 121.644 68.8879C121.613 68.9059 121.578 68.9175 121.543 68.922C121.507 68.9266 121.47 68.924 121.436 68.9144C121.401 68.9048 121.368 68.8884 121.34 68.8662L120.36 68.0892C119.307 67.2965 118.52 66.2025 118.104 64.9522C117.688 63.702 117.662 62.3547 118.029 61.0892L121.151 50.1762C121.419 49.2443 121.992 48.4295 122.779 47.8626C123.565 47.2956 124.52 47.0093 125.488 47.0497C126.457 47.09 127.384 47.4547 128.121 48.0851C128.858 48.7156 129.361 49.5753 129.551 50.5262L131.749 61.6632C132.008 62.954 131.869 64.2931 131.351 65.5032C130.832 66.7133 129.958 67.7372 128.844 68.4392L127.745 69.1392C127.72 69.1588 127.692 69.1732 127.662 69.1816C127.632 69.1901 127.601 69.1923 127.57 69.1882Z" fill="#263238"/>
<path d="M129.25 50.869L121.389 50.54C121.352 50.5382 121.316 50.5292 121.283 50.5134C121.249 50.4976 121.22 50.4755 121.195 50.4482C121.17 50.4209 121.151 50.3889 121.139 50.3543C121.126 50.3196 121.121 50.2828 121.123 50.246C121.13 50.173 121.164 50.1052 121.218 50.056C121.273 50.0068 121.343 49.9797 121.417 49.98L129.271 50.309C129.308 50.3108 129.344 50.3198 129.377 50.3356C129.41 50.3513 129.44 50.3735 129.465 50.4008C129.49 50.4281 129.509 50.46 129.521 50.4947C129.533 50.5294 129.539 50.5662 129.537 50.603C129.536 50.6395 129.528 50.6754 129.513 50.7086C129.498 50.7419 129.476 50.7718 129.449 50.7966C129.423 50.8214 129.391 50.8405 129.357 50.853C129.323 50.8654 129.286 50.8709 129.25 50.869Z" fill="#263238"/>
<path d="M125.428 47.6067C125.355 47.605 125.286 47.5759 125.234 47.5253C125.182 47.4746 125.151 47.4062 125.148 47.3337C125.148 45.9337 124.714 43.5047 123.405 42.9727C123.369 42.9605 123.335 42.9411 123.307 42.9155C123.278 42.89 123.255 42.8589 123.24 42.8242C123.224 42.7895 123.215 42.7519 123.214 42.7136C123.213 42.6754 123.22 42.6375 123.234 42.6021C123.249 42.5666 123.27 42.5345 123.297 42.5077C123.325 42.4809 123.357 42.46 123.393 42.4462C123.428 42.4324 123.466 42.426 123.505 42.4275C123.543 42.4289 123.58 42.4382 123.615 42.4547C125.554 43.2527 125.715 46.9067 125.715 47.3547C125.715 47.4284 125.687 47.4994 125.636 47.5528C125.585 47.6063 125.515 47.6381 125.442 47.6417L125.428 47.6067Z" fill="#263238"/>
<path d="M101.383 57.1197H101.327C101.255 57.1045 101.191 57.0614 101.151 56.9998C101.11 56.9382 101.095 56.863 101.11 56.7907C102.034 52.1917 105.856 44.9327 109.223 42.7907C109.253 42.7716 109.288 42.7588 109.323 42.753C109.359 42.7472 109.396 42.7486 109.431 42.7571C109.466 42.7656 109.499 42.7809 109.528 42.8023C109.557 42.8237 109.582 42.8507 109.601 42.8817C109.621 42.9117 109.635 42.9455 109.642 42.9811C109.649 43.0168 109.648 43.0534 109.64 43.0888C109.633 43.1242 109.617 43.1576 109.596 43.187C109.575 43.2164 109.548 43.2411 109.517 43.2597C106.262 45.3177 102.552 52.3597 101.656 56.8887C101.644 56.953 101.611 57.0112 101.561 57.0534C101.511 57.0956 101.448 57.119 101.383 57.1197Z" fill="#263238"/>
<path d="M103.679 57.8412C103.245 58.9542 102.279 59.6262 101.579 59.3392C100.879 59.0522 100.606 57.9392 101.04 56.7982C101.474 55.6572 102.44 55.0132 103.14 55.3072C103.84 55.6012 104.12 56.7282 103.679 57.8412Z" fill="white"/>
<path d="M122.159 68.6837C122.159 69.2017 121.837 69.6147 121.494 69.6007C121.151 69.5867 120.885 69.1527 120.906 68.6277C120.927 68.1027 121.228 67.6897 121.571 67.7107C121.914 67.7317 122.18 68.1587 122.159 68.6837Z" fill="white"/>
<path d="M128.193 68.9362C128.193 69.4542 127.878 69.8672 127.528 69.8532C127.178 69.8392 126.926 69.4052 126.947 68.8802C126.968 68.3552 127.262 67.9492 127.647 67.9632C128.032 67.9772 128.214 68.4322 128.193 68.9362Z" fill="white"/>
<path d="M246.899 59.2268L246.199 59.1848C246.315 57.6945 246.121 56.1963 245.627 54.7851C245.134 53.374 244.353 52.0808 243.333 50.9875C242.314 49.8943 241.078 49.0249 239.705 48.4345C238.332 47.8441 236.851 47.5455 235.356 47.5578V46.8578C236.946 46.8443 238.523 47.1616 239.984 47.7894C241.446 48.4172 242.761 49.3419 243.846 50.5049C244.932 51.6679 245.763 53.0438 246.289 54.5452C246.814 56.0466 247.022 57.6409 246.899 59.2268Z" fill="#3772FF"/>
<path d="M247.268 62.162L246.862 67.958L247.562 68.007L247.968 62.211L247.268 62.162Z" fill="#3772FF"/>
<path d="M235.356 49.3081H187.056C184.418 49.3514 181.891 50.3744 179.966 52.178C178.04 53.9816 176.855 56.4368 176.64 59.0661L176.199 65.5691C176.099 66.8204 176.26 68.0788 176.673 69.2642C177.086 70.4496 177.742 71.5359 178.598 72.454C179.454 73.372 180.492 74.1016 181.646 74.5963C182.799 75.091 184.044 75.3399 185.299 75.3271H233.599L242.965 81.1021L244.449 59.0661C244.55 57.8152 244.389 56.5569 243.977 55.3715C243.565 54.1861 242.91 53.0997 242.055 52.1815C241.199 51.2634 240.161 50.5336 239.008 50.0389C237.855 49.5441 236.611 49.2952 235.356 49.3081Z" fill="#3772FF"/>
<path d="M232.906 58.6245H188.169V60.2485H232.906V58.6245Z" fill="white"/>
<path d="M232.514 64.3862H199.299V66.0102H232.514V64.3862Z" fill="white"/>
<path d="M162.696 84.0977H212.06C213.343 84.0838 214.615 84.3377 215.795 84.843C216.975 85.3484 218.036 86.0942 218.912 87.0329C219.787 87.9715 220.457 89.0823 220.879 90.2944C221.301 91.5066 221.466 92.7934 221.363 94.0727L220.915 100.723C220.693 103.41 219.481 105.918 217.513 107.762C215.546 109.605 212.963 110.651 210.268 110.698H160.897L150.523 116.613L152.049 94.0727C152.269 91.3852 153.481 88.8757 155.449 87.0321C157.417 85.1885 160 84.1426 162.696 84.0977Z" fill="white"/>
<path opacity="0.15" d="M162.696 84.0977H212.06C213.343 84.0838 214.615 84.3377 215.795 84.843C216.975 85.3484 218.036 86.0942 218.912 87.0329C219.787 87.9715 220.457 89.0823 220.879 90.2944C221.301 91.5066 221.466 92.7934 221.363 94.0727L220.915 100.723C220.693 103.41 219.481 105.918 217.513 107.762C215.546 109.605 212.963 110.651 210.268 110.698H160.897L150.523 116.613L152.049 94.0727C152.269 91.3852 153.481 88.8757 155.449 87.0321C157.417 85.1885 160 84.1426 162.696 84.0977Z" fill="#FC7A1E"/>
<path opacity="0.5" d="M209.554 93.625H163.802V95.291H209.554V93.625Z" fill="#3772FF"/>
<path opacity="0.5" d="M181.484 99.5117H163.403V101.178H181.484V99.5117Z" fill="#3772FF"/>
<path opacity="0.5" d="M197.465 99.5117H185.915V101.178H197.465V99.5117Z" fill="#3772FF"/>
</svg>
