<svg width="261" height="260" viewBox="0 0 261 260" fill="none" xmlns="http://www.w3.org/2000/svg">
<path d="M130.25 249.09C198.644 249.09 254.088 217.081 254.088 177.595C254.088 138.11 198.644 106.101 130.25 106.101C61.8561 106.101 6.41199 138.11 6.41199 177.595C6.41199 217.081 61.8561 249.09 130.25 249.09Z" fill="#FFF2E9"/>
<path opacity="0.3" d="M31.71 206.18L92.55 241.296C92.8614 241.452 93.2051 241.534 93.5536 241.534C93.9021 241.534 94.2458 241.452 94.5572 241.296L202.145 179.177C202.266 179.135 202.37 179.057 202.444 178.953C202.518 178.849 202.558 178.724 202.558 178.597C202.558 178.469 202.518 178.345 202.444 178.241C202.37 178.137 202.266 178.059 202.145 178.017L141.305 142.901C140.995 142.745 140.652 142.664 140.304 142.664C139.957 142.664 139.614 142.745 139.303 142.901L31.71 205.021C31.5895 205.062 31.4849 205.141 31.411 205.245C31.337 205.348 31.2972 205.473 31.2972 205.6C31.2972 205.728 31.337 205.852 31.411 205.956C31.4849 206.06 31.5895 206.138 31.71 206.18Z" fill="#E0E0E0"/>
<path d="M59.1608 188.313C59.047 188.313 58.9344 188.29 58.8293 188.246C58.7242 188.203 58.6288 188.139 58.5486 188.058C58.4684 187.977 58.4049 187.881 58.3618 187.776C58.3188 187.671 58.2969 187.558 58.2976 187.444V131.924C58.2976 131.695 58.3886 131.475 58.5505 131.313C58.7123 131.151 58.9319 131.061 59.1608 131.061C59.3898 131.061 59.6093 131.151 59.7712 131.313C59.9331 131.475 60.024 131.695 60.024 131.924V187.444C60.024 187.674 59.9333 187.894 59.7715 188.056C59.6098 188.219 59.3902 188.311 59.1608 188.313Z" fill="#455A64"/>
<path d="M93.512 168.1C93.3416 168.102 93.1745 168.053 93.0312 167.961C92.888 167.869 92.775 167.736 92.706 167.58L75.6812 124.488C75.5971 124.275 75.601 124.037 75.6922 123.827C75.7834 123.617 75.9543 123.452 76.1674 123.367C76.3805 123.283 76.6182 123.287 76.8284 123.378C77.0385 123.47 77.2039 123.641 77.288 123.854L94.3128 166.92C94.3645 167.051 94.3834 167.192 94.368 167.332C94.3526 167.472 94.3033 167.606 94.2243 167.722C94.1454 167.838 94.0392 167.934 93.9151 168C93.791 168.065 93.6526 168.1 93.512 168.1Z" fill="#455A64"/>
<path d="M91.4632 162.927C91.3463 162.926 91.2306 162.902 91.1233 162.856C91.016 162.809 90.9193 162.741 90.8392 162.656L59.1556 129.132L27.5344 162.511C27.4579 162.598 27.3645 162.669 27.2599 162.719C27.1553 162.77 27.0416 162.799 26.9256 162.804C26.8096 162.809 26.6937 162.791 26.5849 162.751C26.476 162.71 26.3764 162.649 26.2921 162.569C26.2077 162.489 26.1403 162.393 26.094 162.286C26.0476 162.18 26.0231 162.065 26.0221 161.949C26.0211 161.833 26.0435 161.718 26.0881 161.611C26.1326 161.503 26.1983 161.406 26.2812 161.325L58.5212 127.281C58.6021 127.195 58.6997 127.127 58.8079 127.08C58.9161 127.034 59.0326 127.01 59.1504 127.01C59.2673 127.011 59.3829 127.035 59.4902 127.081C59.5974 127.128 59.6941 127.196 59.7744 127.281L92.082 161.471C92.1599 161.553 92.2207 161.649 92.261 161.755C92.3014 161.861 92.3204 161.974 92.317 162.087C92.3136 162.2 92.2879 162.311 92.2413 162.414C92.1948 162.517 92.1282 162.61 92.0456 162.687C91.8894 162.839 91.6809 162.925 91.4632 162.927Z" fill="#455A64"/>
<path d="M24.8096 168.1C24.7008 168.1 24.5931 168.079 24.4924 168.038C24.3865 167.997 24.2898 167.936 24.2077 167.857C24.1257 167.779 24.0601 167.685 24.0146 167.581C23.9692 167.477 23.9448 167.365 23.9429 167.251C23.941 167.138 23.9616 167.025 24.0036 166.92L41.0284 123.827C41.1125 123.614 41.2779 123.443 41.488 123.352C41.6982 123.261 41.9359 123.257 42.149 123.341C42.3621 123.425 42.533 123.591 42.6242 123.801C42.7154 124.011 42.7193 124.249 42.6352 124.462L25.6104 167.554C25.5469 167.715 25.4367 167.853 25.2939 167.95C25.1511 168.047 24.9824 168.1 24.8096 168.1Z" fill="#455A64"/>
<path d="M92.3368 161.596L94.5884 167.534C94.5931 167.584 94.5931 167.635 94.5884 167.685V167.794C94.5236 167.955 94.4038 168.088 94.2504 168.168C94.0377 168.276 93.8025 168.333 93.564 168.333C93.3255 168.333 93.0904 168.276 92.8776 168.168C92.7591 168.109 92.6652 168.009 92.6124 167.888V167.81L90.5324 162.24L92.3368 161.596Z" fill="#3772FF"/>
<path d="M25.9796 161.596L23.728 167.534C23.7231 167.584 23.7231 167.635 23.728 167.685C23.7228 167.721 23.7228 167.758 23.728 167.794C23.7891 167.957 23.9099 168.091 24.066 168.168C24.2778 168.276 24.5121 168.332 24.7498 168.332C24.9875 168.332 25.2218 168.276 25.4336 168.168C25.5548 168.112 25.6497 168.012 25.6988 167.888V167.81L27.81 162.24L25.9796 161.596Z" fill="#3772FF"/>
<path d="M60.154 183.149V188.063C60.1434 188.15 60.1112 188.232 60.0603 188.303C60.0094 188.374 59.9415 188.431 59.8628 188.469C59.6444 188.579 59.403 188.637 59.1582 188.637C58.9134 188.637 58.672 188.579 58.4536 188.469C58.3749 188.431 58.307 188.374 58.2561 188.303C58.2053 188.232 58.173 188.15 58.1624 188.063V183.149C58.4688 182.985 58.8108 182.899 59.1582 182.899C59.5056 182.899 59.8477 182.985 60.154 183.149Z" fill="#3772FF"/>
<path d="M91.666 126.485C91.666 125.179 90.522 123.796 88.1092 122.231C83.6528 119.34 73.7 113.537 67.4652 110.079C67.463 110.066 67.4566 110.055 67.4472 110.046C67.4378 110.038 67.4259 110.033 67.4132 110.032C62.6136 107.12 58.1364 93.2515 54.8188 82.7163C53.6852 79.1231 52.302 77.0899 50.6588 76.1331C50.2688 75.9095 48.8284 75.1191 48.506 74.9267C45.2508 72.9715 40.9712 75.3167 35.6464 78.2339C30.7376 80.9171 26.9052 84.3543 26.1356 93.4803C25.6624 99.0339 26.1096 109.647 27.238 117.691C28.8708 131.133 30.878 131.154 33.7848 133.401C38.7976 137.28 50.0816 142.709 54.85 144.56C63.4716 147.95 70.5228 142.719 75.7748 140.124C80.5899 137.693 85.2384 134.944 89.69 131.898C91.0056 130.946 91.6868 129.979 91.6712 128.96C91.6556 128.559 91.666 126.906 91.666 126.485Z" fill="#3772FF"/>
<path opacity="0.25" d="M91.666 126.485C91.666 125.179 90.522 123.796 88.1092 122.231C83.6528 119.34 73.7 113.537 67.4652 110.079C67.463 110.066 67.4566 110.055 67.4472 110.046C67.4378 110.038 67.4259 110.033 67.4132 110.032C62.6136 107.12 58.1364 93.2515 54.8188 82.7163C53.6852 79.1231 52.302 77.0899 50.6588 76.1331C50.2688 75.9095 48.8284 75.1191 48.506 74.9267C45.2508 72.9715 40.9712 75.3167 35.6464 78.2339C30.7376 80.9171 26.9052 84.3543 26.1356 93.4803C25.6624 99.0339 26.1096 109.647 27.238 117.691C28.8708 131.133 30.878 131.154 33.7848 133.401C38.7976 137.28 50.0816 142.709 54.85 144.56C63.4716 147.95 70.5228 142.719 75.7748 140.124C80.5899 137.693 85.2384 134.944 89.69 131.898C91.0056 130.946 91.6868 129.979 91.6712 128.96C91.6556 128.559 91.666 126.906 91.666 126.485Z" fill="black"/>
<path d="M50.4664 76.0239C47.2372 74.3287 43.0408 76.6323 37.8512 79.4767C34.5284 81.3019 31.6944 83.4599 29.9732 87.5003L27.81 86.2315C29.5312 82.2067 32.36 80.0487 35.6724 78.2339C41.0024 75.3167 45.2768 72.9715 48.5372 74.9267L50.4664 76.0239Z" fill="#3772FF"/>
<path d="M88.13 122.231C85.2388 120.354 85.1764 119.876 67.33 109.991C67.3597 109.998 67.3878 110.01 67.4132 110.027C62.6188 107.105 58.1468 93.2467 54.8292 82.7167C51.4544 72.0151 45.8332 75.1143 37.8616 79.4823C32.9424 82.1603 29.11 85.6027 28.33 94.7287C27.55 103.855 29.24 126.449 32.3548 129.205C35.7504 132.959 49.3796 139.937 54.824 142.08C63.4456 145.47 70.4968 140.239 75.7488 137.644C80.573 135.208 85.2303 132.455 89.69 129.402C92.6696 127.229 92.394 125.008 88.13 122.231Z" fill="#3772FF"/>
<g opacity="0.1">
<path d="M37.8512 79.4818C45.8228 75.1138 51.444 72.0146 54.8188 82.7162C58.1364 93.2514 62.6188 107.12 67.4132 110.032C67.4132 110.032 59.1816 110.032 47.258 116.464C34.8612 123.157 32.9684 129.703 32.4016 129.235C29.2816 126.635 27.5656 103.849 28.3404 94.7282C29.1152 85.6074 32.9424 82.1598 37.8512 79.4818Z" fill="black"/>
</g>
<path d="M93.6108 170.612L39.0004 139.085L130.214 86.4502L184.819 117.978L93.6108 170.612Z" fill="#455A64"/>
<path d="M39.0004 139.084V202.14L41.876 203.798V160.654L90.7352 188.864V232.008L93.6108 233.667V170.612L39.0004 139.084Z" fill="#263238"/>
<path d="M41.876 203.799L44.7516 202.14V162.313L41.876 160.654V203.799Z" fill="black"/>
<path d="M93.6108 233.668L96.4864 232.009V188.864L181.948 139.553V182.697L184.819 181.038V117.978L93.6108 170.612V233.668Z" fill="#37474F"/>
<path d="M181.948 182.697L179.073 181.038V141.212L181.948 139.553V182.697Z" fill="#263238"/>
<g opacity="0.2">
<path d="M88.65 158.173C85.8576 159.78 85.8576 162.391 88.65 164.003C91.4424 165.615 95.93 165.609 98.7432 164.003C101.556 162.396 101.53 159.78 98.7432 158.173C95.956 156.567 91.4476 156.561 88.65 158.173Z" fill="black"/>
</g>
<g opacity="0.2">
<path d="M48.3292 139.048L68.37 150.629C68.5445 150.718 68.7379 150.765 68.9342 150.765C69.1305 150.765 69.3239 150.718 69.4984 150.629L84.2612 142.106C84.3291 142.083 84.3881 142.039 84.4299 141.981C84.4716 141.922 84.4941 141.852 84.4941 141.781C84.4941 141.709 84.4716 141.639 84.4299 141.581C84.3881 141.523 84.3291 141.479 84.2612 141.456L64.21 129.87C64.0346 129.783 63.8415 129.738 63.6458 129.738C63.45 129.738 63.2569 129.783 63.0816 129.87L48.3188 138.398C48.0172 138.575 48.0172 138.866 48.3292 139.048Z" fill="black"/>
</g>
<g opacity="0.2">
<path d="M48.3292 141.117L68.37 152.698C68.5445 152.788 68.7379 152.835 68.9342 152.835C69.1305 152.835 69.3239 152.788 69.4984 152.698L84.2612 144.175C84.5732 143.993 84.5732 143.702 84.2612 143.525L64.21 131.939C64.0347 131.852 63.8416 131.807 63.6458 131.807C63.4501 131.807 63.257 131.852 63.0816 131.939L48.3292 140.462C48.2619 140.487 48.2037 140.531 48.1626 140.59C48.1215 140.648 48.0994 140.718 48.0994 140.79C48.0994 140.861 48.1215 140.931 48.1626 140.99C48.2037 141.049 48.2619 141.093 48.3292 141.117Z" fill="black"/>
</g>
<path d="M48.3292 140.442L68.37 152.022C68.5445 152.112 68.7379 152.159 68.9342 152.159C69.1305 152.159 69.3239 152.112 69.4984 152.022L84.282 143.52C84.594 143.338 84.594 143.047 84.282 142.87L64.21 131.264C64.0346 131.177 63.8415 131.131 63.6458 131.131C63.45 131.131 63.2569 131.177 63.0816 131.264L48.3292 139.786C48.2619 139.811 48.2037 139.855 48.1625 139.914C48.1214 139.973 48.0994 140.042 48.0994 140.114C48.0994 140.186 48.1214 140.256 48.1625 140.314C48.2037 140.373 48.2619 140.417 48.3292 140.442Z" fill="#EBEBEB"/>
<path d="M63.092 131.264L49.0728 139.36L68.37 150.514C68.5453 150.601 68.7384 150.646 68.9342 150.646C69.1299 150.646 69.323 150.601 69.4984 150.514L83.5384 142.418L64.21 131.264C64.036 131.178 63.8448 131.134 63.651 131.134C63.4572 131.134 63.266 131.178 63.092 131.264Z" fill="#E0E0E0"/>
<path d="M48.3292 138.404L68.37 149.984C68.5445 150.074 68.7379 150.121 68.9342 150.121C69.1305 150.121 69.3239 150.074 69.4984 149.984L84.282 141.44C84.3493 141.416 84.4075 141.372 84.4486 141.313C84.4897 141.254 84.5118 141.184 84.5118 141.113C84.5118 141.041 84.4897 140.971 84.4486 140.913C84.4075 140.854 84.3493 140.81 84.282 140.785L64.21 129.226C64.0355 129.136 63.8421 129.089 63.6458 129.089C63.4495 129.089 63.2561 129.136 63.0816 129.226L48.3292 137.748C48.2619 137.773 48.2037 137.817 48.1625 137.876C48.1214 137.935 48.0994 138.004 48.0994 138.076C48.0994 138.148 48.1214 138.217 48.1625 138.276C48.2037 138.335 48.2619 138.379 48.3292 138.404Z" fill="#FAFAFA"/>
<g opacity="0.2">
<path d="M70.97 128.752L81.812 135.029C82.0182 135.134 82.2462 135.188 82.4776 135.188C82.709 135.188 82.937 135.134 83.1432 135.029L118.134 114.816C118.215 114.789 118.285 114.738 118.335 114.669C118.385 114.599 118.411 114.517 118.411 114.431C118.411 114.346 118.385 114.263 118.335 114.194C118.285 114.125 118.215 114.073 118.134 114.047L107.297 107.77C107.09 107.665 106.861 107.61 106.629 107.61C106.397 107.61 106.168 107.665 105.961 107.77L70.97 127.983C70.8892 128.009 70.819 128.061 70.7692 128.13C70.7194 128.199 70.6926 128.282 70.6926 128.367C70.6926 128.453 70.7194 128.535 70.7692 128.605C70.819 128.674 70.8892 128.725 70.97 128.752Z" fill="black"/>
</g>
<path d="M71.3444 127.28V127.036C71.3583 126.827 71.421 126.624 71.5276 126.443C71.6341 126.263 71.7815 126.109 71.958 125.996L104.084 107.432C104.274 107.335 104.484 107.284 104.697 107.284C104.911 107.284 105.121 107.335 105.311 107.432L115.264 113.194C115.439 113.308 115.585 113.462 115.692 113.642C115.798 113.822 115.862 114.025 115.877 114.234V114.478C115.863 114.687 115.799 114.89 115.693 115.07C115.586 115.251 115.439 115.404 115.264 115.518L83.138 134.082C82.9481 134.179 82.7378 134.23 82.5244 134.23C82.311 134.23 82.1007 134.179 81.9108 134.082L71.958 128.341C71.78 128.225 71.6317 128.068 71.5252 127.884C71.4186 127.7 71.3567 127.493 71.3444 127.28Z" fill="#E0E0E0"/>
<path d="M71.958 126.683L81.89 132.444C82.0807 132.539 82.2907 132.589 82.5036 132.589C82.7165 132.589 82.9266 132.539 83.1172 132.444L115.264 113.88C115.337 113.855 115.401 113.807 115.446 113.744C115.491 113.68 115.515 113.605 115.515 113.527C115.515 113.449 115.491 113.373 115.446 113.31C115.401 113.246 115.337 113.199 115.264 113.173L105.29 107.412C105.1 107.314 104.89 107.264 104.676 107.264C104.463 107.264 104.253 107.314 104.063 107.412L71.9372 125.976C71.8645 126.003 71.8021 126.053 71.7589 126.118C71.7157 126.182 71.6936 126.259 71.6959 126.337C71.6982 126.414 71.7247 126.49 71.7717 126.552C71.8186 126.614 71.8838 126.659 71.958 126.683Z" fill="#FAFAFA"/>
<path d="M98.3116 161.502C100.771 158.99 102.217 152.714 99.8144 150.722H87.61C85.2076 152.714 86.6532 158.985 89.1128 161.497L89.1804 161.569L89.2636 161.653L89.4872 161.85L89.5444 161.897L89.7316 162.037C89.8356 162.11 89.9448 162.178 90.0488 162.24C91.1856 162.817 92.4425 163.118 93.7174 163.118C94.9922 163.118 96.2491 162.817 97.386 162.24C97.496 162.178 97.6019 162.108 97.7032 162.032L97.88 161.902L97.9528 161.845C98.0256 161.783 98.0984 161.72 98.166 161.653L98.2648 161.559L98.3116 161.502Z" fill="#EBEBEB"/>
<path d="M88.65 149.921C85.8576 151.528 85.8576 154.139 88.65 155.751C91.4424 157.363 95.93 157.357 98.7432 155.751C101.556 154.144 101.53 151.528 98.7432 149.921C95.956 148.315 91.4476 148.309 88.65 149.921Z" fill="#FAFAFA"/>
<path d="M90.6364 151.06C88.9412 152.043 88.9412 153.629 90.6364 154.607C91.5873 155.092 92.6396 155.344 93.707 155.344C94.7744 155.344 95.8266 155.092 96.7776 154.607C98.4728 153.629 98.4728 152.043 96.7776 151.06C95.8258 150.578 94.7739 150.327 93.707 150.327C92.6401 150.327 91.5882 150.578 90.6364 151.06Z" fill="#EBEBEB"/>
<path d="M96.7776 152.745C95.8258 152.263 94.7739 152.012 93.707 152.012C92.6401 152.012 91.5882 152.263 90.6364 152.745C90.2178 152.964 89.8604 153.284 89.5964 153.676C89.8604 154.068 90.2178 154.387 90.6364 154.607C91.5873 155.091 92.6396 155.344 93.707 155.344C94.7744 155.344 95.8267 155.091 96.7776 154.607C97.1977 154.39 97.5557 154.069 97.8176 153.676C97.5557 153.282 97.1977 152.962 96.7776 152.745Z" fill="#E0E0E0"/>
<path d="M91.0108 153.676C90.1423 152.795 89.3956 151.801 88.7904 150.722C87.7504 148.908 87.5736 146.479 88.104 146.178C88.6344 145.876 90.7924 148.304 90.7924 148.304C90.5932 147.277 90.5164 146.23 90.5636 145.184C90.6572 143.567 91.0472 142.101 91.51 141.804C91.9728 141.508 93.0128 143.546 93.4548 145.023C93.8968 146.5 94.162 147.717 94.162 147.717C94.3423 146.565 94.6082 145.428 94.9576 144.316C95.4776 142.782 95.9976 142.434 96.3668 142.59C96.736 142.746 96.996 143.453 97.1052 145.496C97.1454 146.471 97.1141 147.448 97.0116 148.419C97.0116 148.419 97.776 147.582 98.6184 146.77C99.5492 145.881 99.9444 145.73 100.21 145.928C100.475 146.126 100.548 147.488 99.1124 150.088C98.3976 151.412 97.4819 152.617 96.398 153.66C96.398 153.66 94.4064 154.96 91.0108 153.676Z" fill="#3772FF"/>
<path d="M144.29 123.968L146.89 92.6433C146.916 92.1351 146.811 91.6287 146.584 91.1731C146.357 90.7176 146.017 90.3284 145.595 90.0433C145.132 89.8184 144.622 89.7058 144.107 89.7149C143.592 89.7239 143.086 89.8542 142.631 90.0953L108.311 109.902C107.859 110.198 107.475 110.587 107.187 111.044C106.898 111.5 106.71 112.014 106.637 112.549L104.037 143.869C104.011 144.376 104.116 144.882 104.342 145.337C104.568 145.792 104.907 146.182 105.326 146.469C105.791 146.693 106.302 146.804 106.818 146.794C107.334 146.784 107.84 146.653 108.296 146.411L142.616 126.61C143.067 126.314 143.45 125.925 143.738 125.47C144.027 125.014 144.215 124.502 144.29 123.968Z" fill="#3772FF"/>
<path opacity="0.5" d="M144.29 123.968L146.89 92.6433C146.916 92.1351 146.811 91.6287 146.584 91.1731C146.357 90.7176 146.017 90.3284 145.595 90.0433C145.132 89.8184 144.622 89.7058 144.107 89.7149C143.592 89.7239 143.086 89.8542 142.631 90.0953L108.311 109.902C107.859 110.198 107.475 110.587 107.187 111.044C106.898 111.5 106.71 112.014 106.637 112.549L104.037 143.869C104.011 144.376 104.116 144.882 104.342 145.337C104.568 145.792 104.907 146.182 105.326 146.469C105.791 146.693 106.302 146.804 106.818 146.794C107.334 146.784 107.84 146.653 108.296 146.411L142.616 126.61C143.067 126.314 143.45 125.925 143.738 125.47C144.027 125.014 144.215 124.502 144.29 123.968Z" fill="white"/>
<path d="M144.29 123.968L146.89 92.6433C146.916 92.1351 146.811 91.6287 146.584 91.1731C146.357 90.7176 146.017 90.3284 145.595 90.0433C145.132 89.8184 144.622 89.7058 144.107 89.7149C143.592 89.7239 143.086 89.8542 142.631 90.0953L108.311 109.902C107.858 110.185 107.477 110.569 107.198 111.025L112.528 114.104V143.973L142.616 126.605C143.066 126.309 143.449 125.922 143.737 125.467C144.026 125.012 144.215 124.501 144.29 123.968Z" fill="#3772FF"/>
<path opacity="0.8" d="M144.29 123.968L146.89 92.6433C146.916 92.1351 146.811 91.6287 146.584 91.1731C146.357 90.7176 146.017 90.3284 145.595 90.0433C145.132 89.8184 144.622 89.7058 144.107 89.7149C143.592 89.7239 143.086 89.8542 142.631 90.0953L108.311 109.902C107.858 110.185 107.477 110.569 107.198 111.025L112.528 114.104V143.973L142.616 126.605C143.066 126.309 143.449 125.922 143.737 125.467C144.026 125.012 144.215 124.501 144.29 123.968Z" fill="white"/>
<path d="M106.912 145.538L109.512 114.218C109.585 113.683 109.773 113.169 110.062 112.712C110.351 112.256 110.734 111.867 111.187 111.571L145.507 91.7644C146.354 91.2756 146.973 91.6708 146.895 92.6432L144.295 123.968C144.221 124.503 144.033 125.016 143.745 125.473C143.456 125.929 143.073 126.319 142.621 126.615L108.301 146.416C107.453 146.905 106.85 146.51 106.912 145.538Z" fill="#3772FF"/>
<path opacity="0.65" d="M106.912 145.538L109.512 114.218C109.585 113.683 109.773 113.169 110.062 112.712C110.351 112.256 110.734 111.867 111.187 111.571L145.507 91.7644C146.354 91.2756 146.973 91.6708 146.895 92.6432L144.295 123.968C144.221 124.503 144.033 125.016 143.745 125.473C143.456 125.929 143.073 126.319 142.621 126.615L108.301 146.416C107.453 146.905 106.85 146.51 106.912 145.538Z" fill="white"/>
<path d="M124.613 120.406C124.748 118.805 125.872 116.917 127.125 116.189C128.378 115.461 129.288 116.189 129.153 117.775C129.018 119.361 127.9 121.269 126.646 121.997C125.393 122.725 124.483 122.013 124.613 120.406Z" fill="#3772FF"/>
<path d="M125.419 129.876L133.854 124.977L132.418 124.15L123.989 129.049L125.419 129.876Z" fill="#3772FF"/>
<g opacity="0.85">
<path d="M125.419 129.875L133.854 124.977L132.418 124.15L123.989 129.048L125.419 129.875Z" fill="white"/>
</g>
<path d="M137.764 139.36L127.499 145.288C127.297 145.397 127.068 145.449 126.839 145.439C126.645 145.435 126.455 145.387 126.282 145.299L121.764 142.699H121.738C121.567 142.582 121.426 142.427 121.325 142.247C121.224 142.066 121.166 141.865 121.155 141.659V141.42C121.155 141.03 121.42 140.868 121.764 141.066L124.494 142.626L125.102 142.98L124.967 142.288L124.01 129.049L125.44 129.881L133.874 124.982L138.248 138.32C138.274 138.522 138.242 138.726 138.157 138.911C138.071 139.095 137.935 139.251 137.764 139.36Z" fill="#3772FF"/>
<g opacity="0.5">
<path d="M137.764 139.36L127.499 145.288C127.297 145.397 127.069 145.449 126.839 145.439C126.645 145.434 126.455 145.386 126.282 145.298L121.764 142.698H121.738C121.567 142.581 121.426 142.427 121.325 142.246C121.224 142.066 121.166 141.865 121.155 141.658V141.419C121.155 141.029 121.42 140.868 121.764 141.066L124.494 142.626L125.102 142.979L124.967 142.288L124.01 129.048L125.44 129.88L133.874 124.982L138.248 138.32C138.274 138.521 138.242 138.726 138.157 138.91C138.071 139.094 137.935 139.25 137.764 139.36Z" fill="white"/>
</g>
<path d="M121.327 140.967L124.826 138.944L125.539 143.661L121.327 140.967Z" fill="#3772FF"/>
<g opacity="0.25">
<path d="M121.327 140.967L124.826 138.944L125.539 143.66L121.327 140.967Z" fill="black"/>
</g>
<path d="M125.419 129.881L123.989 129.049L124.951 142.252C125.029 142.631 124.811 142.772 124.478 142.59L121.748 141.03C121.405 140.832 121.14 140.993 121.14 141.383V141.622C121.15 141.829 121.208 142.03 121.309 142.21C121.41 142.391 121.552 142.545 121.722 142.662H121.748L126.267 145.262C126.439 145.35 126.63 145.398 126.823 145.403L125.419 129.881Z" fill="#3772FF"/>
<g opacity="0.25">
<path d="M125.419 129.88L123.989 129.048L124.951 142.251C125.029 142.631 124.811 142.771 124.478 142.589L121.748 141.029C121.405 140.832 121.14 140.993 121.14 141.383V141.622C121.15 141.828 121.208 142.03 121.309 142.21C121.41 142.39 121.552 142.545 121.722 142.662H121.748L126.267 145.262C126.439 145.35 126.63 145.398 126.823 145.402L125.419 129.88Z" fill="white"/>
</g>
<path opacity="0.2" d="M87.012 138.539L88.5928 139.449L101.062 132.148L102.44 130.526L99.57 131.285L87.012 138.539Z" fill="black"/>
<path d="M99.6844 130.177L102.342 129.657C102.358 129.654 102.376 129.656 102.391 129.664C102.406 129.671 102.419 129.683 102.428 129.697C102.436 129.712 102.44 129.729 102.439 129.746C102.437 129.763 102.43 129.779 102.42 129.792L100.61 131.831L99.6844 130.177Z" fill="#FFA8A7"/>
<path d="M102.42 129.792C102.43 129.779 102.437 129.763 102.439 129.746C102.44 129.729 102.436 129.712 102.428 129.697C102.419 129.683 102.406 129.671 102.391 129.664C102.376 129.656 102.358 129.654 102.342 129.657L101.822 129.756C101.893 129.8 101.951 129.863 101.989 129.939C102.027 130.014 102.042 130.098 102.035 130.182V130.229L102.42 129.792Z" fill="#263238"/>
<path d="M90.73 137.509L90.9484 137.384L91.2136 137.239L100.61 131.831C100.698 131.539 100.672 131.225 100.537 130.952C100.467 130.763 100.353 130.594 100.203 130.459C100.054 130.324 99.8741 130.228 99.6792 130.177L90.262 135.58L89.742 135.866C90.1008 135.72 91.042 137.338 90.73 137.509Z" fill="#3772FF"/>
<path d="M91.5412 137.041L92.0248 136.76C92.1652 136.682 92.0872 136.334 91.9156 135.97C91.6972 135.486 91.2604 135.018 91.068 135.117L90.7144 135.325L90.5844 135.398C90.7768 135.299 91.2136 135.767 91.432 136.25C91.5932 136.599 91.6764 136.937 91.5516 137.03L91.5412 137.041Z" fill="#EBEBEB"/>
<path d="M91.6608 136.968C91.9936 136.792 91.042 135.148 90.704 135.325L90.2204 135.606C90.5532 135.429 91.5048 137.073 91.172 137.249L91.6608 136.968Z" fill="#3772FF"/>
<path d="M90.73 137.509L91.2136 137.239C91.5412 137.067 90.6312 135.476 90.288 135.58L89.8044 135.861C90.1008 135.72 91.042 137.338 90.73 137.509Z" fill="#EBEBEB"/>
<path opacity="0.15" d="M102.43 129.699L102.342 129.657L100.412 130.697L90.444 136.417C90.444 136.386 90.4128 136.386 90.4024 136.417C90.6832 136.859 90.8964 137.416 90.7092 137.509L90.9276 137.384L91.1928 137.239L100.61 131.831L102.414 129.792C102.426 129.78 102.433 129.764 102.436 129.748C102.439 129.731 102.437 129.714 102.43 129.699Z" fill="black"/>
<path d="M88.676 138.679L90.7092 137.509C90.8548 137.436 90.7768 137.088 90.6104 136.729C90.392 136.24 89.9552 135.772 89.7628 135.866L87.7192 137.036C87.3136 137.27 87.688 138.154 88.1404 138.544C88.2052 138.618 88.2912 138.671 88.387 138.695C88.4827 138.719 88.5836 138.714 88.676 138.679Z" fill="#F28F8F"/>
<path opacity="0.1" d="M88.7956 138.045C88.7445 137.824 88.6426 137.619 88.4982 137.444C88.3538 137.27 88.1707 137.132 87.9636 137.041C87.914 137.022 87.8602 137.015 87.8074 137.022C87.7546 137.03 87.7045 137.05 87.662 137.083C87.3552 137.363 87.7088 138.175 88.1404 138.544C88.204 138.615 88.2873 138.666 88.3799 138.69C88.4725 138.714 88.5701 138.71 88.6604 138.679C88.8164 138.591 88.8736 138.357 88.7956 138.045Z" fill="black"/>
<path d="M160.961 41.4958C160.861 41.4404 160.748 41.4117 160.634 41.4126H154.69L152.236 42.827V51.3186L154.69 49.9198L156.806 47.4758V53.4558L159.261 52.0414L165.688 45.1254C165.75 45.0527 165.795 44.9673 165.82 44.8753C165.845 44.7833 165.85 44.6868 165.834 44.5927C165.819 44.4986 165.782 44.4091 165.728 44.3305C165.674 44.2518 165.604 44.1859 165.522 44.1374L160.961 41.4958Z" fill="#FFF2E9"/>
<path d="M156.817 53.4561L159.271 52.0417L165.698 45.1257C165.78 45.0314 165.833 44.9154 165.851 44.7917C165.869 44.668 165.851 44.5418 165.799 44.4282C165.746 44.3146 165.663 44.2185 165.557 44.1513C165.452 44.0841 165.329 44.0487 165.204 44.0493H159.271L156.817 45.4689V53.4561Z" fill="#FED6B9"/>
<g filter="url(#filter0_d_813_3064)">
<path d="M159.287 37.0399C159.243 36.2234 159.008 35.4287 158.599 34.7204C158.191 34.012 157.621 33.41 156.936 32.9631C156.207 32.5922 155.399 32.3989 154.581 32.3989C153.762 32.3989 152.955 32.5922 152.225 32.9631L134.332 43.2071C133.646 43.6539 133.075 44.2565 132.665 44.9659C132.256 45.6752 132.02 46.4712 131.976 47.2891V66.6071C132.021 67.424 132.257 68.219 132.666 68.9274C133.076 69.6357 133.646 70.2376 134.332 70.6839C135.062 71.0547 135.869 71.248 136.688 71.248C137.506 71.248 138.313 71.0547 139.043 70.6839L157.16 60.2839C159.276 59.0775 159.297 57.8659 159.297 56.3631L159.287 37.0399Z" fill="white"/>
</g>
<path d="M131.976 66.6069C132.021 67.4239 132.257 68.2188 132.666 68.9272C133.076 69.6356 133.646 70.2374 134.332 70.6837C134.996 71.0179 135.724 71.2082 136.466 71.2422C137.209 71.2763 137.951 71.1533 138.643 70.8813C137.535 71.2973 136.688 70.6629 136.688 69.3213V50.0033C136.717 49.184 136.955 48.3857 137.379 47.6841L132.668 44.9697C132.245 45.6716 132.009 46.47 131.982 47.2889L131.976 66.6069Z" fill="#FED6B9"/>
<path d="M159.214 36.4004C158.938 35.3968 158.023 35.0796 156.936 35.7088L139.038 45.9268C138.341 46.3574 137.769 46.9634 137.379 47.6844L132.699 44.9752C133.09 44.2536 133.661 43.6461 134.358 43.2124L152.246 32.9684C152.977 32.5991 153.785 32.4067 154.604 32.4067C155.423 32.4067 156.231 32.5991 156.962 32.9684C157.551 33.3578 158.054 33.8628 158.441 34.4529C158.828 35.0429 159.091 35.7055 159.214 36.4004Z" fill="#FFF2E9"/>
<path d="M150.332 60.3512L146.11 62.79V45.89L150.332 43.4512V60.3512Z" fill="#FF5C5D"/>
<path d="M154.56 46.644V52.2756L141.888 59.592V53.9604L154.56 46.644Z" fill="#FF5C5D"/>
<path d="M197.512 60.6787C201.672 60.7931 202.852 62.4571 205.359 66.0399C207.865 69.6227 216.393 83.1999 216.393 83.1999L228.473 87.8383L226.882 94.8843C226.882 94.8843 210.736 92.1491 209.68 91.5303C208.624 90.9115 200.762 77.9583 200.762 77.9583L197.512 60.6787Z" fill="#E6E6E6"/>
<path d="M194.33 60.7935C198.261 59.8107 199.998 62.0051 201.308 64.4335C207.262 75.3535 209.68 140.873 209.68 140.873C209.68 140.873 196.399 146.172 186.545 139.953L194.33 60.7935Z" fill="#F0F0F0"/>
<path d="M206.992 173.41L204.506 182.869C204.506 182.869 201.641 184.559 199.171 182.895C197.21 181.574 197.33 180.009 197.33 180.009L197.444 178.584L197.725 167.586L206.992 173.41Z" fill="#B16668"/>
<path d="M195.032 185.12C194.35 186.633 193.96 191.053 193.96 191.053C193.96 191.053 194.376 192.681 196.638 194.121L198.838 188.277L195.032 185.12Z" fill="#263238"/>
<path d="M196.638 194.142L202.353 193.357L204.527 188.807L197.907 190.773L196.638 194.142Z" fill="black"/>
<path d="M204.938 181.23L205.244 180.076C206.113 180.123 206.035 181.839 206.097 182.338C206.29 183.768 206.435 185.198 206.654 186.623C206.88 188.2 207.247 189.754 207.751 191.266C208.271 192.707 208.572 194.241 209.451 195.515C210.33 196.789 211.874 197.543 213.122 198.401C213.453 198.59 213.726 198.865 213.913 199.196C214.199 199.831 213.798 200.564 213.304 201.048C212.428 201.866 211.324 202.399 210.138 202.576C208.957 202.751 207.757 202.751 206.576 202.576C204.478 202.351 202.47 201.608 200.731 200.413C199.056 199.217 198.692 196.851 198.422 194.938C198.204 193.378 198.339 191.563 197.694 190.102C197.049 188.64 195.208 186.722 195.032 185.141C194.956 183.801 195.24 182.465 195.853 181.272C196.524 179.988 197.008 178.35 197.444 178.584L197.366 179.52C197.366 179.452 197.798 181.319 200.486 181.984C201.75 182.302 204.137 182.291 204.938 181.23Z" fill="#263238"/>
<path d="M200.866 191.475C200.939 193.222 200.866 193.945 200.866 194.735C200.939 196.181 201.324 197.185 201.651 198.589C201.792 199.165 201.991 199.726 202.244 200.263C202.514 200.887 203.019 201.729 202.722 202.343C202.576 202.624 202.374 202.874 202.13 203.076C201.048 204.002 199.652 204.477 198.23 204.402C197.481 204.394 196.748 204.184 196.108 203.794C194.855 202.972 194.361 201.475 193.69 200.211C192.957 198.843 193.383 198.131 193.264 196.628C193.117 194.641 192.859 192.663 192.489 190.705C195.198 187.606 197.476 190.612 200.866 191.475Z" fill="#B16668"/>
<path d="M205.016 105.04C209.077 119.194 215.936 143.25 214.012 150.738C212.556 156.348 206.212 176.836 206.212 176.836C203.762 177.18 198.755 177.726 196.805 173.436C196.311 166.473 194.595 119.194 194.595 119.194L205.016 105.04Z" fill="#3772FF"/>
<path opacity="0.4" d="M205.016 105.04C209.077 119.194 215.936 143.25 214.012 150.738C212.556 156.348 206.212 176.836 206.212 176.836C203.762 177.18 198.755 177.726 196.805 173.436C196.311 166.473 194.595 119.194 194.595 119.194L205.016 105.04Z" fill="white"/>
<path opacity="0.25" d="M194.616 119.169C197.193 116.733 199.59 114.112 201.786 111.327C201.786 111.327 201.266 114.681 196.644 119.304C196.644 119.304 204.392 149.147 204.345 153.91C204.298 158.673 201.745 175.75 201.745 175.75L194.616 119.169Z" fill="black"/>
<path d="M205.016 105.04C201.703 111.91 200.403 114.655 194.616 119.195C194.616 119.195 201.693 148.606 202.005 154.316C202.525 163.806 201.303 185.048 200.866 191.501C199.769 192.936 194.423 193.18 192.738 191.958C191.969 188.974 189.384 178.47 188.173 169.047C187.278 162.084 188.422 155.855 188.568 154.03C184.819 144.467 176.4 130.51 173.322 120.51C172.817 118.779 172.498 117 172.37 115.201C171.684 108.862 174.278 104.021 175.802 100.641L205.016 105.04Z" fill="#3772FF"/>
<g opacity="0.5">
<path d="M205.016 105.04C201.703 111.909 200.403 114.655 194.616 119.194C194.616 119.194 201.693 148.605 202.005 154.315C202.525 163.805 201.303 185.047 200.866 191.5C199.769 192.935 194.423 193.18 192.738 191.958C191.969 188.973 189.384 178.469 188.173 169.047C187.278 162.084 188.422 155.854 188.568 154.029C184.819 144.466 176.4 130.509 173.322 120.51C172.817 118.779 172.498 116.999 172.37 115.201C171.684 108.862 174.278 104.021 175.802 100.641L205.016 105.04Z" fill="white"/>
</g>
<path d="M191.917 201.422C191.506 203.024 191.88 207.439 191.88 207.439C191.88 207.439 192.562 208.968 195.032 210.002L196.202 203.877L191.917 201.422Z" fill="#263238"/>
<path d="M195.032 210.002L200.523 208.25L201.88 203.409L195.708 206.466L195.032 210.002Z" fill="black"/>
<path d="M200.845 195.884L200.887 194.735C201.625 195.104 203.211 201.1 205.385 205.228C207.371 208.993 211.354 211.115 212.639 212.758C214.355 214.958 210.954 217.74 205.541 216.533C202.858 215.93 198.781 214.172 197.71 212.347C196.638 210.522 196.274 207.184 195.385 205.842C194.496 204.5 192.359 202.946 191.917 201.422C191.572 200.042 191.588 198.597 191.964 197.226C192.4 195.848 192.38 194.433 193.071 194.319L193.175 195.4C193.534 196.144 194.938 196.997 197.673 197.174C198.978 197.252 200.242 197.08 200.845 195.884Z" fill="#37474F"/>
<path d="M191.267 48.9527L188.537 58.1827C180.945 58.1827 176.254 50.7883 176.254 43.1963C176.254 35.5731 181.111 29.2031 188.734 29.2031H191.21C198.833 29.2031 205.016 34.2627 205.016 41.8911C205.016 46.8571 198.859 48.9527 191.267 48.9527Z" fill="#263238"/>
<path d="M206.44 34.8401C207.023 33.8884 207.304 32.7826 207.246 31.6681C207.21 31.1105 207.048 30.5685 206.771 30.0829C206.494 29.5973 206.111 29.181 205.65 28.8653C204.23 27.9605 202.265 28.3869 200.97 29.4321C200.865 28.4392 200.377 27.5262 199.61 26.8865C198.843 26.2469 197.858 25.9309 196.862 26.0053C195.598 26.1041 194.475 26.8061 193.383 27.4405C191.524 28.383 189.517 29.0003 187.45 29.2657L189.774 30.1601C189.458 30.6466 189.258 31.1988 189.187 31.7746C189.117 32.3505 189.179 32.9347 189.369 33.4829C189.469 33.7077 189.59 33.922 189.733 34.1225C191.276 36.4306 193.407 38.2851 195.906 39.4944C198.405 40.7038 201.182 41.2243 203.95 41.0021C204.726 40.9854 205.485 40.7706 206.154 40.3781C206.545 40.1002 206.876 39.7465 207.127 39.3381C207.612 38.6283 207.852 37.779 207.808 36.9201C207.777 36.4853 207.636 36.0656 207.396 35.7013C207.157 35.3371 206.828 35.0405 206.44 34.8401Z" fill="#263238"/>
<path d="M185.339 61.8804L180.362 62.4004C177.06 63.2064 175.568 64.6624 175.23 67.6004C175.074 68.9628 174.247 72.5924 175.402 77.1424C176.442 81.2608 179.239 91.3436 179.239 91.3436C179.239 91.3436 175.625 100.407 173.93 105.04C185.672 112.7 200.164 109.674 205.031 105.04C204.62 100.662 203.071 96.58 202.722 92.6748C202.722 92.6748 202.972 86.57 203.456 83.9232C207.174 79.8724 206.695 75.9932 205.016 72.868C201.937 67.0908 197.294 62.0208 195.796 62.026L185.339 61.8804Z" fill="#455A64"/>
<path d="M194.262 58.5991C195.749 58.9631 196.909 59.5663 197.512 60.6791C198.115 61.7919 202.821 69.2019 202.821 69.2019C202.821 69.2019 199.025 64.2047 196.165 62.6915C195.582 62.3507 194.934 62.1347 194.262 62.0571V58.5991Z" fill="#E0E0E0"/>
<path d="M185.339 61.8805C185.339 61.8805 190.539 72.7225 191.464 80.0389C192.39 87.3553 190.424 112.315 190.424 120.235C190.424 129.782 190.456 145.538 190.456 145.538C190.456 145.538 184.522 145.538 180.446 144.373C177.466 143.526 173.935 142.002 171.798 139.449C171.798 139.449 171.216 119.907 172.443 110.599C173.602 101.759 178.308 90.8705 178.308 90.8705L172.276 67.8761C172.276 67.8761 172.557 63.9241 176.275 62.8165C179.796 61.7557 185.339 61.8805 185.339 61.8805Z" fill="#FAFAFA"/>
<path d="M180.446 66.6123L174.289 75.6239L178.288 90.8599C178.288 90.8599 174.575 98.6963 173.207 106.283C176.915 95.7947 180.264 92.6487 180.264 92.6487L178.09 83.7775C178.09 83.7775 178.854 80.9851 179.92 76.2219C180.986 71.4587 180.81 68.6975 180.446 66.6123Z" fill="#EBEBEB"/>
<path d="M183.81 75.109C183.81 74.6566 183.768 73.679 183.69 72.4414C183.306 66.4042 183.129 60.9442 185.167 60.4814L185.349 61.3134C183.857 61.6358 184.351 69.4306 184.538 72.3634C184.621 73.627 184.684 74.6202 184.663 75.1194L183.81 75.109Z" fill="#3772FF"/>
<path d="M185.339 58.5991C184.96 58.6012 184.588 58.7069 184.264 58.9049C183.941 59.1029 183.678 59.3855 183.503 59.7223C183.014 60.5543 181.985 61.9531 181.985 61.9531C181.985 61.9531 181.948 67.4963 182.505 68.9367C182.983 70.1847 188.859 74.8075 188.859 74.8075C188.859 74.8075 188.287 79.7007 188.24 81.4115C188.194 83.1223 191.21 89.3259 191.579 92.6487C191.579 92.6487 192.203 84.5783 191.714 80.8291C190.856 74.3031 186.784 64.5427 185.339 61.8699V58.5991Z" fill="#EBEBEB"/>
<path d="M182.578 95.3004H182.505V94.7076C183.211 94.6485 183.887 94.3967 184.46 93.9795C183.849 93.5726 183.302 93.0766 182.838 92.5079C181.876 91.2651 179.775 82.3992 180.425 80.3348C180.945 78.6032 182.666 74.7811 184.184 74.7188H184.221C185.734 74.7188 187.72 78.3275 188.407 79.9915C189.228 81.9987 187.887 91.0103 187.034 92.326C186.621 92.9342 186.118 93.476 185.542 93.9327C186.145 94.3051 186.84 94.4998 187.549 94.4943L187.622 95.082C186.699 95.0976 185.793 94.8349 185.022 94.3279C184.315 94.8758 183.468 95.2129 182.578 95.3004ZM184.247 75.3064C183.358 75.3428 181.761 78.1768 181.033 80.5064C180.435 82.4044 182.458 90.9844 183.347 92.1388C183.82 92.7101 184.38 93.2033 185.006 93.5999C185.609 93.1516 186.136 92.609 186.566 91.9932C187.356 90.7712 188.646 82.0507 187.882 80.2099C186.956 77.9999 185.141 75.3064 184.247 75.3064Z" fill="#455A64"/>
<path d="M188.49 94.744C188.497 94.9166 188.453 95.0874 188.363 95.2348C188.273 95.3822 188.141 95.4997 187.984 95.5723C187.828 95.6449 187.653 95.6694 187.482 95.6428C187.312 95.6161 187.153 95.5395 187.026 95.4226C186.899 95.3056 186.809 95.1536 186.768 94.9858C186.728 94.8179 186.737 94.6418 186.797 94.4796C186.856 94.3174 186.962 94.1764 187.102 94.0744C187.241 93.9725 187.407 93.9142 187.58 93.9068C187.811 93.8984 188.037 93.9816 188.207 94.1383C188.378 94.2951 188.479 94.5128 188.49 94.744Z" fill="#263238"/>
<path d="M183.389 94.9625C183.396 95.1351 183.352 95.3059 183.262 95.4533C183.172 95.6007 183.04 95.7181 182.883 95.7908C182.727 95.8634 182.552 95.8879 182.381 95.8612C182.211 95.8346 182.052 95.758 181.925 95.641C181.797 95.5241 181.708 95.3721 181.667 95.2043C181.626 95.0364 181.636 94.8603 181.696 94.698C181.755 94.5358 181.861 94.3949 182 94.2929C182.14 94.191 182.306 94.1326 182.479 94.1253C182.594 94.1204 182.708 94.1382 182.816 94.1777C182.924 94.2171 183.023 94.2774 183.107 94.3552C183.192 94.433 183.26 94.5266 183.309 94.6308C183.357 94.735 183.384 94.8477 183.389 94.9625Z" fill="#263238"/>
<path d="M188.573 83.8966L188.053 83.8602C188.028 83.8589 188.003 83.8524 187.98 83.8411C187.957 83.8298 187.936 83.8139 187.92 83.7944C187.903 83.7749 187.891 83.7523 187.883 83.7278C187.876 83.7033 187.874 83.6776 187.876 83.6522C187.975 81.9882 187.923 80.761 187.72 80.2722C186.836 78.1194 185.016 75.4258 184.221 75.457C183.425 75.4882 181.834 78.3326 181.137 80.553C180.981 81.073 181.028 82.2846 181.272 83.933C181.28 83.9839 181.267 84.0358 181.237 84.0775C181.207 84.1193 181.162 84.1476 181.111 84.1566L180.591 84.2346C180.565 84.2382 180.539 84.2367 180.513 84.23C180.488 84.2233 180.464 84.2116 180.443 84.1956C180.423 84.1797 180.405 84.1597 180.392 84.1369C180.379 84.1142 180.371 84.089 180.368 84.063C180.092 82.2118 180.061 80.943 180.264 80.2826C180.638 79.097 182.39 74.6406 184.158 74.5626C185.926 74.4846 188.053 78.7798 188.526 79.9342C188.786 80.5686 188.864 81.8374 188.745 83.7094C188.743 83.7558 188.724 83.8 188.693 83.8342C188.662 83.8684 188.619 83.8905 188.573 83.8966Z" fill="#3772FF"/>
<path d="M168.075 129.22C168.98 130.068 169.474 131.207 170.404 132.892C171.335 134.576 175.927 134.738 176.291 130C176.566 126.433 175.318 125.227 172.817 122.45C170.191 119.528 169.177 119.049 169.297 116.34C169.364 115.004 171.377 95.6595 171.377 95.6595L177.996 77.4231C177.996 77.4231 180.388 68.9003 179.187 62.9619C179.187 62.9619 174.897 62.6135 171.866 65.6399C168.324 69.1759 164.315 86.6583 163.431 90.1891C162.158 94.663 161.601 99.3106 161.783 103.959C161.991 109.632 162.012 121.488 162.766 124.104C163.52 126.719 165.636 126.938 168.075 129.22Z" fill="#B16668"/>
<path d="M179.484 62.1764C179.484 62.1764 174.923 61.8904 172.256 64.0744C169.588 66.2584 167.929 72.3632 165.969 78.4628C164.008 84.5624 162.261 90.506 161.616 94.7804C161.096 98.358 162.136 117.244 162.136 117.244C162.136 117.244 165.173 118.347 169.297 116.34L171.85 95.68L179.494 74.9424C180.903 70.8031 180.899 66.3134 179.484 62.1764Z" fill="#F0F0F0"/>
<path d="M197.252 36.1714C200.726 36.5302 203.627 40.2222 203.435 48.5994C203.268 55.7026 200.965 57.4394 199.795 57.9594C198.625 58.4794 196.41 58.547 194.246 58.183V62.057C194.246 62.057 196.742 67.5586 195.682 69.5242C189.759 67.0802 185.339 61.8802 185.339 61.8802V53.1026C185.339 53.1026 183.878 54.8342 181.486 53.2482C179.094 51.6622 179 47.7258 180.394 46.3114C181.787 44.897 184.782 45.3494 185.339 47.2994C185.339 47.2994 187.419 47.2474 191.251 44.5174C194.167 42.524 196.291 39.5703 197.252 36.1714Z" fill="#B16668"/>
<path d="M193.789 45.8744C193.8 46.0018 193.786 46.1301 193.747 46.2519C193.708 46.3737 193.645 46.4863 193.561 46.5833C193.478 46.6802 193.376 46.7595 193.261 46.8164C193.147 46.8733 193.022 46.9066 192.894 46.9144C192.7 46.9316 192.504 46.8904 192.333 46.796C192.162 46.7015 192.023 46.5582 191.934 46.3843C191.844 46.2104 191.809 46.0139 191.832 45.8198C191.855 45.6257 191.935 45.4428 192.063 45.2946C192.19 45.1464 192.359 45.0396 192.547 44.9878C192.736 44.936 192.936 44.9416 193.121 45.0038C193.306 45.066 193.469 45.1821 193.588 45.3372C193.707 45.4923 193.777 45.6793 193.789 45.8744Z" fill="#263238"/>
<path d="M194.787 52.52L197.606 53.4196C197.555 53.608 197.467 53.7843 197.346 53.9378C197.226 54.0914 197.076 54.2191 196.905 54.3132C196.734 54.4074 196.546 54.4662 196.352 54.4859C196.158 54.5057 195.962 54.4862 195.775 54.4284C195.397 54.2976 195.084 54.0266 194.9 53.6715C194.716 53.3163 194.676 52.9041 194.787 52.52Z" fill="#9A4A4D"/>
<path d="M202.166 43.6799L200.252 42.3539C200.333 42.225 200.439 42.1139 200.564 42.0273C200.689 41.9408 200.83 41.8806 200.979 41.8504C201.128 41.8202 201.281 41.8207 201.43 41.8519C201.579 41.883 201.719 41.9441 201.844 42.0315C202.1 42.2113 202.277 42.4835 202.337 42.7908C202.397 43.0981 202.336 43.4167 202.166 43.6799Z" fill="#263238"/>
<path d="M201.49 45.6924C201.492 45.8779 201.439 46.06 201.338 46.2158C201.237 46.3716 201.093 46.4943 200.923 46.5687C200.753 46.6431 200.565 46.6658 200.382 46.6341C200.199 46.6024 200.03 46.5176 199.895 46.3904C199.76 46.2631 199.665 46.0989 199.622 45.9183C199.58 45.7376 199.592 45.5485 199.656 45.3743C199.72 45.2002 199.834 45.0488 199.983 44.9389C200.133 44.829 200.311 44.7656 200.497 44.7564C200.624 44.7522 200.75 44.7732 200.869 44.818C200.987 44.8629 201.096 44.9308 201.188 45.0178C201.28 45.1048 201.355 45.2091 201.406 45.3249C201.458 45.4407 201.487 45.5656 201.49 45.6924Z" fill="#263238"/>
<path d="M196.69 45.1519L196.841 50.8407L199.836 49.9151L196.69 45.1519Z" fill="#9A4A4D"/>
<path d="M194.262 58.1829C191.974 57.8865 187.278 56.1497 186.545 54.2881C186.839 55.2288 187.414 56.0566 188.194 56.6593C189.598 57.8657 194.262 59.2177 194.262 59.2177V58.1829Z" fill="#9A4A4D"/>
<path d="M232.456 80.8496L209.846 91.6084L203.627 118.513L204.132 119.049L225.623 108.238L232.96 81.3852L232.456 80.8496Z" fill="#3772FF"/>
<path opacity="0.35" d="M210.356 92.1497L204.132 119.049L203.627 118.514L209.846 91.6089L210.356 92.1497Z" fill="black"/>
<path opacity="0.25" d="M232.96 81.3857L210.356 92.1497L204.132 119.049L225.623 108.239L232.96 81.3857Z" fill="black"/>
<g opacity="0.2">
<path d="M222.29 102.768C222.498 103.288 224.23 104.463 226.741 104.255L227.162 102.695L222.29 102.768Z" fill="black"/>
</g>
<g opacity="0.1">
<path d="M226.148 86.8969L226.336 85.9973C226.44 85.4773 225.114 85.7581 223.372 86.5797L220.044 88.1397C218.302 88.9613 216.809 90.0325 216.705 90.5317L216.518 91.4313L226.148 86.8969Z" fill="black"/>
</g>
<path d="M227.521 82.6802C227.589 82.3682 227.048 82.4046 226.32 82.7634L225.004 83.4082C225.004 83.4082 225.394 81.4582 222.467 82.7322C219.539 84.0062 218.905 86.2578 218.905 86.2578L217.496 86.9598C216.716 87.3446 216.014 87.9166 215.936 88.2286L215.769 88.8006L227.412 83.2626C227.412 83.2626 227.459 82.9922 227.521 82.6802Z" fill="#37474F"/>
<path d="M226.284 84.547C225.218 85.0306 224.77 85.2698 224.614 86.0394C224.432 86.913 224.36 87.5474 224.36 87.5474L219.201 90.0018C219.201 90.0018 219.451 88.889 219.529 88.4418C219.607 87.9946 219.435 87.797 218.614 88.1922L218.291 87.2874L226.611 83.4082L226.284 84.547Z" fill="#37474F"/>
<path d="M226.45 86.9127C226.45 86.9127 226.533 86.5071 226.637 86.0131C226.741 85.5191 225.415 85.7739 223.673 86.5955L220.34 88.1555C218.603 88.9771 217.111 90.0483 217.007 90.5475L216.82 91.4471L226.45 86.9127Z" fill="#37474F"/>
<path d="M230.444 90.5893C230.444 90.5893 229.643 93.5429 229.435 94.2865C229.227 95.0301 225.524 96.7409 223.668 96.9749C220.122 97.4169 219.721 98.1865 220.574 100.703C221.359 103.022 223.668 103.901 226.871 103.522C228.369 103.345 230.444 102.014 231.26 99.6893C232.3 96.7253 231.738 93.5533 232.149 91.8217C232.56 90.0901 231.348 89.5597 230.444 90.5893Z" fill="#B16668"/>
<path d="M26.7492 60.1589L27.8048 60.7673L54.1948 45.5313L53.1392 44.9229L26.7492 60.1589Z" fill="#455A64"/>
<path d="M53.1392 44.9225L27.8048 59.5501V37.5905L53.1392 22.9629V44.9225Z" fill="#3772FF"/>
<g opacity="0.8">
<path d="M53.1392 44.9225L27.8048 59.5501V37.5905L53.1392 22.9629V44.9225Z" fill="white"/>
</g>
<path d="M55.2504 20.5244L26.77 36.9772V62.5976L55.2712 46.1396L55.2504 20.5244ZM54.2104 45.5312L27.81 60.7672V37.5908L54.1948 22.36L54.2104 45.5312Z" fill="#37474F"/>
<path d="M54.1948 45.5312L53.1392 44.9228V22.9632L54.1948 22.3496V45.5312Z" fill="#263238"/>
<path d="M55.2504 20.5244L54.1948 19.916L25.6936 36.3688L26.7492 36.9772L55.2504 20.5244Z" fill="#455A64"/>
<path d="M25.6936 36.3687L26.7492 36.9771V62.5974L25.6936 61.989V36.3687Z" fill="#263238"/>
<path d="M48.168 41.2304C49.156 40.6584 49.9516 41.1212 49.9516 42.2704C49.9185 42.8886 49.7396 43.4902 49.4297 44.0261C49.1197 44.5621 48.6874 45.0171 48.168 45.354C47.1852 45.9208 46.3896 45.4632 46.3896 44.314C46.4229 43.6965 46.6013 43.0954 46.9103 42.5597C47.2193 42.024 47.6502 41.5686 48.168 41.2304Z" fill="#3772FF"/>
<path opacity="0.2" d="M33.7692 36.5875L47.1852 28.8395C47.5596 28.6211 47.8612 28.7979 47.8612 29.2243V29.2659C47.8489 29.5004 47.7812 29.7287 47.6638 29.9321C47.5463 30.1354 47.3823 30.3081 47.1852 30.4359L33.7692 38.1943C33.4 38.4127 33.0932 38.2359 33.0932 37.8043V37.7575C33.1075 37.5234 33.176 37.2959 33.2934 37.0928C33.4107 36.8898 33.5736 36.7168 33.7692 36.5875Z" fill="black"/>
<g opacity="0.2">
<path d="M31.6476 42.692L49.3276 32.5C49.702 32.2816 50.0036 32.3804 50.0036 32.7184C49.9766 32.926 49.9015 33.1244 49.7841 33.2978C49.6667 33.4712 49.5104 33.6146 49.3276 33.7168L31.6476 43.9192C31.2784 44.1376 30.9768 44.0388 30.982 43.6956C31.009 43.4886 31.083 43.2905 31.1984 43.1166C31.3138 42.9426 31.4674 42.7974 31.6476 42.692Z" fill="black"/>
<path d="M31.6476 45.1306L49.3276 34.9334C49.702 34.7202 50.0036 34.819 50.0036 35.1518C49.9762 35.36 49.9009 35.559 49.7836 35.7331C49.6663 35.9072 49.5102 36.0518 49.3276 36.1554L31.6476 46.3578C31.2784 46.571 30.9768 46.4722 30.982 46.1342C31.0082 45.927 31.0819 45.7286 31.1974 45.5545C31.3128 45.3805 31.4669 45.2354 31.6476 45.1306Z" fill="black"/>
<path d="M31.6476 47.564L49.3276 37.3668C49.702 37.1536 50.0036 37.2524 50.0036 37.5904C49.9766 37.798 49.9015 37.9964 49.7841 38.1698C49.6667 38.3431 49.5104 38.4866 49.3276 38.5888L31.6476 48.7912C31.2784 49.0096 30.9768 48.9056 30.982 48.5676C31.009 48.3606 31.083 48.1625 31.1984 47.9885C31.3138 47.8146 31.4674 47.6693 31.6476 47.564Z" fill="black"/>
</g>
<path opacity="0.3" d="M45.0012 46.4412C44.8646 46.5134 44.7136 46.5543 44.5592 46.5608C44.1796 46.5608 44.216 46.176 44.2264 45.9108C44.2264 45.7912 44.0652 45.604 43.982 45.7652C43.7532 46.176 43.462 46.5608 43.2124 46.9612C43.0616 47.2056 42.7756 47.762 42.4116 47.684C42.266 47.6528 42.214 47.4916 42.214 47.2888C42.3976 46.952 42.479 46.5688 42.448 46.1864C42.448 46.072 42.24 45.9316 42.1828 46.0876C42.0511 46.4197 41.9739 46.7709 41.954 47.1276C41.7852 47.4243 41.594 47.7077 41.382 47.9752C41.2572 48.1364 41.1532 48.3184 41.018 48.4952C40.9816 48.5316 40.9192 48.6252 40.8672 48.6304C40.8152 48.6356 40.758 48.5784 40.7424 48.4952C40.736 48.3729 40.7554 48.2507 40.7996 48.1364C40.7996 48.1364 40.7996 48.1364 40.7996 48.1052C40.7996 47.9856 40.6436 47.8088 40.5812 47.9596C40.3481 48.5963 39.995 49.1823 39.5412 49.686L39.4736 49.7432C39.4736 49.6704 39.4736 49.6028 39.4736 49.53C39.4671 49.3676 39.4391 49.2067 39.3904 49.0516C39.3592 48.9736 39.224 48.854 39.1512 48.958C38.8283 49.5455 38.4336 50.0905 37.976 50.5804C37.899 50.6437 37.8173 50.7011 37.7316 50.752C37.6484 50.7104 37.7732 50.2788 37.794 50.232C37.8408 50.0396 37.9032 49.8524 37.9656 49.6652C38.0304 49.5152 38.0775 49.3581 38.106 49.1972C38.106 49.0516 37.8824 48.828 37.8356 49.0256C37.8356 49.1036 37.7472 49.296 37.6744 49.5456C37.3726 50.1039 37.0302 50.6392 36.65 51.1472C36.3087 51.6974 35.8349 52.1533 35.272 52.4732C35.116 52.5564 34.8196 52.6812 34.648 52.5564C34.4764 52.4316 34.492 52.2184 34.4868 52.0364C34.48 51.623 34.5361 51.211 34.6532 50.8144C35.2072 50.5212 35.7211 50.1577 36.182 49.7328C36.6344 49.3711 37.0259 48.9392 37.3416 48.4536C37.4976 48.1676 37.5912 47.7048 37.2116 47.5436C36.9464 47.4292 36.6084 47.6164 36.3848 47.7412C36.0778 47.9231 35.7992 48.1491 35.558 48.412C35.069 48.9676 34.7133 49.6274 34.518 50.3412C34.4868 50.4504 34.44 50.596 34.3984 50.7572C33.7994 51.0643 33.1201 51.1787 32.4536 51.0848C32.4172 51.0848 32.4016 51.1628 32.4536 51.168C33.0916 51.3049 33.7563 51.2413 34.3568 50.986C34.1852 51.7244 34.0916 52.702 34.778 52.8944C35.4644 53.0868 36.2964 52.2236 36.6656 51.7244C36.9484 51.3515 37.1956 50.9528 37.404 50.5336C37.423 50.503 37.4439 50.4735 37.4664 50.4452C37.4664 50.7884 37.534 51.038 37.872 50.9652C38.21 50.8924 38.5168 50.4452 38.704 50.1696C38.8912 49.894 39.042 49.6496 39.224 49.4052C39.2552 49.7172 39.3072 50.0656 39.6036 50.0084C39.9 49.9512 40.1236 49.4364 40.2796 49.2284C40.4356 49.0204 40.5136 48.8644 40.6124 48.6772C40.6331 48.7114 40.6557 48.7443 40.68 48.776C40.9244 49.036 41.2 48.776 41.3768 48.5472C41.6004 48.256 41.85 47.944 42.0632 47.6112C42.1139 47.7542 42.2184 47.8717 42.3544 47.9388C42.734 48.1156 43.0876 47.8036 43.306 47.528C43.5714 47.1658 43.8078 46.7833 44.0132 46.384C44.0287 46.4595 44.0598 46.5309 44.1046 46.5936C44.1494 46.6563 44.2068 46.7089 44.2732 46.748C44.4131 46.8186 44.5692 46.8505 44.7256 46.8405C44.8819 46.8304 45.0327 46.7788 45.1624 46.6908C45.2352 46.6336 45.126 46.3788 45.0012 46.4412ZM36.7384 47.918C36.91 47.8296 37.2584 47.6788 37.2948 47.9752C37.271 48.1692 37.1874 48.3509 37.0556 48.4952C36.7548 48.9003 36.4056 49.2671 36.0156 49.5872C35.6184 49.9534 35.1885 50.2824 34.7312 50.57C34.8654 50.0137 35.1129 49.491 35.4582 49.0347C35.8036 48.5784 36.2394 48.1982 36.7384 47.918Z" fill="black"/>
<path d="M68.3492 60.1589L69.4048 60.7673L95.7948 45.5313L94.7392 44.9229L68.3492 60.1589Z" fill="#455A64"/>
<path d="M94.7392 44.9225L69.4048 59.5501V37.5905L94.7392 22.9629V44.9225Z" fill="#3772FF"/>
<g opacity="0.8">
<path d="M94.7392 44.9225L69.4048 59.5501V37.5905L94.7392 22.9629V44.9225Z" fill="white"/>
</g>
<path d="M96.8504 20.5244L68.37 36.9772V62.5976L96.8712 46.1396L96.8504 20.5244ZM95.8104 45.5312L69.41 60.7672V37.5908L95.7948 22.36L95.8104 45.5312Z" fill="#37474F"/>
<path d="M95.7948 45.5312L94.7392 44.9228V22.9632L95.7948 22.3496V45.5312Z" fill="#263238"/>
<path d="M96.8504 20.5244L95.7948 19.916L67.2936 36.3688L68.3492 36.9772L96.8504 20.5244Z" fill="#455A64"/>
<path d="M67.2936 36.3687L68.3492 36.9771V62.5974L67.2936 61.989V36.3687Z" fill="#263238"/>
<path d="M89.7732 41.2304C90.756 40.6584 91.5516 41.1212 91.5516 42.2704C91.5182 42.888 91.3398 43.489 91.0309 44.0247C90.7219 44.5605 90.291 45.0159 89.7732 45.354C88.7852 45.9208 87.9896 45.4632 87.9896 44.314C88.0227 43.6958 88.2016 43.0942 88.5115 42.5583C88.8215 42.0224 89.2538 41.5674 89.7732 41.2304Z" fill="#3772FF"/>
<path opacity="0.2" d="M75.3692 36.5875L88.7904 28.8395C89.1596 28.6211 89.4612 28.7979 89.4612 29.2243V29.2659C89.4491 29.4998 89.382 29.7277 89.2655 29.931C89.149 30.1342 88.9862 30.3072 88.7904 30.4359L75.3692 38.1943C75 38.4127 74.6984 38.2359 74.6984 37.8043V37.7575C74.7117 37.5238 74.7793 37.2964 74.8957 37.0933C75.0121 36.8902 75.1743 36.717 75.3692 36.5875Z" fill="black"/>
<g opacity="0.2">
<path d="M73.2476 42.692L90.9276 32.5C91.302 32.2816 91.6036 32.3804 91.6036 32.7184C91.5766 32.926 91.5015 33.1244 91.3841 33.2978C91.2667 33.4712 91.1104 33.6146 90.9276 33.7168L73.2476 43.9192C72.8784 44.1376 72.5768 44.0388 72.582 43.6956C72.609 43.4886 72.683 43.2905 72.7984 43.1166C72.9138 42.9426 73.0674 42.7974 73.2476 42.692Z" fill="black"/>
<path d="M73.2476 45.1306L90.9276 34.9334C91.302 34.7202 91.6036 34.819 91.6036 35.1518C91.5762 35.36 91.5009 35.559 91.3836 35.7331C91.2663 35.9072 91.1102 36.0518 90.9276 36.1554L73.2476 46.3578C72.8784 46.571 72.5768 46.4722 72.582 46.1342C72.6082 45.927 72.682 45.7286 72.7974 45.5545C72.9128 45.3805 73.0669 45.2354 73.2476 45.1306Z" fill="black"/>
<path d="M73.2476 47.564L90.9276 37.3668C91.302 37.1536 91.6036 37.2524 91.6036 37.5904C91.5766 37.798 91.5015 37.9964 91.3841 38.1698C91.2667 38.3431 91.1104 38.4866 90.9276 38.5888L73.2476 48.7912C72.8784 49.0096 72.5768 48.9056 72.582 48.5676C72.609 48.3606 72.683 48.1625 72.7984 47.9885C72.9138 47.8146 73.0674 47.6693 73.2476 47.564Z" fill="black"/>
</g>
<path opacity="0.3" d="M86.6012 46.4412C86.4651 46.5146 86.3138 46.5556 86.1592 46.5608C85.7848 46.5608 85.816 46.176 85.8264 45.9108C85.8264 45.7912 85.6652 45.604 85.582 45.7652C85.3532 46.176 85.062 46.5608 84.8124 46.9612C84.6668 47.2056 84.3756 47.762 84.0168 47.684C83.866 47.6528 83.814 47.4916 83.814 47.2888C83.9977 46.952 84.079 46.5688 84.048 46.1864C84.048 46.072 83.8452 45.9316 83.7828 46.0876C83.6511 46.4197 83.5739 46.7709 83.554 47.1276C83.3852 47.4243 83.194 47.7077 82.982 47.9752C82.8624 48.1364 82.7532 48.3184 82.618 48.4952C82.5868 48.5316 82.5192 48.6252 82.4672 48.6304C82.4152 48.6356 82.358 48.5784 82.3424 48.4952C82.336 48.3729 82.3555 48.2507 82.3996 48.1364C82.4019 48.1262 82.4019 48.1155 82.3996 48.1052C82.3996 47.9856 82.2436 47.8088 82.1812 47.9596C81.9481 48.5963 81.595 49.1823 81.1412 49.686L81.0736 49.7432C81.0736 49.6704 81.0736 49.6028 81.0736 49.53C81.0671 49.3676 81.0391 49.2067 80.9904 49.0516C80.9592 48.9736 80.824 48.854 80.7512 48.958C80.4301 49.5466 80.0352 50.0918 79.576 50.5804C79.4999 50.6449 79.4181 50.7023 79.3316 50.752C79.2536 50.7104 79.3784 50.2788 79.394 50.232C79.4408 50.0396 79.5032 49.8524 79.5656 49.6652C79.6304 49.5152 79.6775 49.3581 79.706 49.1972C79.706 49.0516 79.4824 48.828 79.4356 49.0256C79.4356 49.1036 79.3472 49.296 79.2744 49.5456C78.9745 50.1049 78.632 50.6404 78.25 51.1472C77.9087 51.6974 77.4349 52.1533 76.872 52.4732C76.716 52.5564 76.4196 52.6812 76.248 52.5564C76.0764 52.4316 76.0972 52.2184 76.0868 52.0364C76.0852 51.6233 76.1412 51.212 76.2532 50.8144C76.8073 50.5212 77.3211 50.1577 77.782 49.7328C78.2357 49.3725 78.6274 48.9404 78.9416 48.4536C79.0976 48.1676 79.1912 47.7048 78.8116 47.5436C78.5464 47.4292 78.2084 47.6164 77.9848 47.7412C77.6737 47.9155 77.3899 48.1345 77.1424 48.3912C76.6534 48.9468 76.2977 49.6066 76.1024 50.3204C76.0712 50.4296 76.0244 50.5752 75.9828 50.7364C75.3838 51.0435 74.7045 51.1579 74.038 51.064C74.0016 51.064 73.986 51.142 74.038 51.1472C74.676 51.2841 75.3407 51.2205 75.9412 50.9652C75.7696 51.7036 75.676 52.6812 76.3624 52.8736C77.0488 53.066 77.8808 52.2028 78.25 51.7036C78.5328 51.3307 78.78 50.932 78.9884 50.5128C79.0075 50.4822 79.0283 50.4527 79.0508 50.4244C79.0508 50.7676 79.1184 51.0172 79.4564 50.9444C79.7944 50.8716 80.1012 50.4244 80.2936 50.1488C80.486 49.8732 80.6264 49.6288 80.8136 49.3844C80.8448 49.6964 80.902 50.0448 81.1932 49.9876C81.4844 49.9304 81.7132 49.4156 81.8692 49.2076C82.0252 48.9996 82.1032 48.8436 82.202 48.6564C82.2228 48.6906 82.2453 48.7235 82.2696 48.7552C82.514 49.0152 82.7896 48.7552 82.9664 48.5264C83.19 48.2352 83.4396 47.9232 83.6528 47.5904C83.7035 47.7334 83.808 47.8509 83.944 47.918C84.3236 48.0948 84.6772 47.7828 84.8956 47.5072C85.161 47.145 85.3974 46.7625 85.6028 46.3632C85.6183 46.4387 85.6494 46.5101 85.6942 46.5728C85.739 46.6355 85.7964 46.6881 85.8628 46.7272C86.0027 46.7978 86.1589 46.8297 86.3152 46.8197C86.4715 46.8096 86.6224 46.758 86.752 46.67C86.8404 46.6336 86.726 46.3788 86.6012 46.4412ZM78.3384 47.918C78.5152 47.8296 78.8584 47.6788 78.8948 47.9752C78.8705 48.1681 78.789 48.3492 78.6608 48.4952C78.3583 48.8989 78.0093 49.2655 77.6208 49.5872C77.2236 49.9534 76.7937 50.2824 76.3364 50.57C76.47 50.0142 76.7167 49.4918 77.0611 49.0355C77.4056 48.5792 77.8404 48.1988 78.3384 47.918Z" fill="black"/>
<defs>
<filter id="filter0_d_813_3064" x="129.005" y="30.9132" width="33.2636" height="44.792" filterUnits="userSpaceOnUse" color-interpolation-filters="sRGB">
<feFlood flood-opacity="0" result="BackgroundImageFix"/>
<feColorMatrix in="SourceAlpha" type="matrix" values="0 0 0 0 0 0 0 0 0 0 0 0 0 0 0 0 0 0 127 0" result="hardAlpha"/>
<feOffset dy="1.48571"/>
<feGaussianBlur stdDeviation="1.48571"/>
<feComposite in2="hardAlpha" operator="out"/>
<feColorMatrix type="matrix" values="0 0 0 0 0 0 0 0 0 0 0 0 0 0 0 0 0 0 0.1 0"/>
<feBlend mode="normal" in2="BackgroundImageFix" result="effect1_dropShadow_813_3064"/>
<feBlend mode="normal" in="SourceGraphic" in2="effect1_dropShadow_813_3064" result="shape"/>
</filter>
</defs>
</svg>
