<svg width="6" height="6" viewBox="0 0 6 6" fill="none" xmlns="http://www.w3.org/2000/svg">
<path d="M5.75 3C5.75 3.49445 5.60338 3.9778 5.32867 4.38892C5.05397 4.80005 4.66352 5.12048 4.20671 5.3097C3.74989 5.49892 3.24723 5.54843 2.76227 5.45196C2.27732 5.3555 1.83187 5.1174 1.48223 4.76777C1.1326 4.41813 0.894501 3.97268 0.798038 3.48772C0.701575 3.00277 0.751083 2.50011 0.940302 2.04329C1.12952 1.58648 1.44995 1.19603 1.86108 0.921325C2.2722 0.646622 2.75555 0.5 3.25 0.5C3.91304 0.5 4.54892 0.763392 5.01777 1.23223C5.48661 1.70107 5.75 2.33696 5.75 3Z" fill="#47BD8F"/>
</svg>
